<svg id="epingle" xmlns="http://www.w3.org/2000/svg" viewBox="0 0 50 50">
    <g>
        <path d="M25,2.83A14.88,14.88,0,0,0,10.14,17.69c0,7.88,13.51,28.43,14.09,29.3a.92.92,0,0,0,1.54,0c.58-.87,14.09-21.42,14.09-29.3A14.88,14.88,0,0,0,25,2.83Zm0,41.94C22.09,40.22,12,24,12,17.69a13,13,0,1,1,26,0C38,24,27.91,40.22,25,44.77Z" style="fill:#231f20"/>
        <path d="M25,11.19a6.5,6.5,0,1,0,6.5,6.5A6.51,6.51,0,0,0,25,11.19Zm0,11.14a4.64,4.64,0,1,1,4.64-4.64A4.64,4.64,0,0,1,25,22.33Z" style="fill:#231f20"/>
        <path d="M45,0H5A5,5,0,0,0,0,5V45a5,5,0,0,0,5,5H45a5,5,0,0,0,5-5V5A5,5,0,0,0,45,0ZM25,45.33A20.32,20.32,0,1,1,45.31,25,20.33,20.33,0,0,1,25,45.33Z" style="fill:none"/>
    </g>
</svg>
