<svg xmlns="http://www.w3.org/2000/svg" viewBox="0 0 50 50"><title>icon-Closeicon-</title><g id="Calque_2" data-name="Calque 2"><g id="icon-Close"><path d="M26.57,24.92l9.81-9.81a1,1,0,0,0,0-1.41,1,1,0,0,0-1.42,0l-9.81,9.81L15.34,13.7a1,1,0,0,0-1.41,1.41l9.81,9.81-9.81,9.81a1,1,0,0,0,1.41,1.42l9.81-9.81L35,36.15a1,1,0,0,0,.71.29,1,1,0,0,0,.71-.29,1,1,0,0,0,0-1.42Z" style="fill:#231f20"/><path d="M45,0H5A5,5,0,0,0,0,5V45a5,5,0,0,0,5,5H45a5,5,0,0,0,5-5V5A5,5,0,0,0,45,0ZM25,45.33A20.32,20.32,0,1,1,45.31,25,20.33,20.33,0,0,1,25,45.33Z" style="fill:none"/></g></g></svg>