<svg id="fleche-haut" xmlns="http://www.w3.org/2000/svg" viewBox="0 0 50 50">
	<g>
		<path d="M16.34,30.58c0.59,0.59,1.54,0.59,2.12,0L25,24.03l6.54,6.54c0.59,0.59,1.54,0.59,2.12,0c0.59-0.59,0.59-1.54,0-2.12
			l-7.58-7.58c-0.3-0.3-0.69-0.44-1.08-0.43c-0.39-0.01-0.79,0.14-1.08,0.43l-7.58,7.58C15.75,29.04,15.75,29.99,16.34,30.58z"/>
	</g>
	<path style="fill:none" d="M45,0.73H5c-2.76,0-5,2.24-5,5v40c0,2.76,2.24,5,5,5h40c2.76,0,5-2.24,5-5v-40C50,2.97,47.76,0.73,45,0.73z
		M25,46.07C13.78,46.07,4.68,36.98,4.67,25.76C4.66,14.53,13.76,5.43,24.98,5.43c11.22-0.01,20.32,9.08,20.33,20.3
		c0.01,11.22-9.08,20.33-20.3,20.34C25.01,46.07,25,46.07,25,46.07z"/>
</svg>
