<svg xmlns="http://www.w3.org/2000/svg" viewBox="0 0 50 50"><title>fleche_downicon-</title><g id="Calque_2" data-name="Calque 2"><g id="fleche_down"><path d="M41.86,16.22a1,1,0,0,0-1.41,0L25.15,31.51,9.86,16.22a1,1,0,0,0-1.41,0,1,1,0,0,0,0,1.41l16,16a1,1,0,0,0,1.41,0l16-16A1,1,0,0,0,41.86,16.22Z" style="fill:#231f20"/><path d="M45,0H5A5,5,0,0,0,0,5V45a5,5,0,0,0,5,5H45a5,5,0,0,0,5-5V5A5,5,0,0,0,45,0ZM25,45.33A20.32,20.32,0,1,1,45.31,25,20.33,20.33,0,0,1,25,45.33Z" style="fill:none"/></g></g></svg>