<svg xmlns="http://www.w3.org/2000/svg" viewBox="0 0 50 50"><title>Rechercheicon-</title><g id="Calque_2" data-name="Calque 2"><g id="Recherche"><path d="M41.53,39.88,31.08,29.38a13,13,0,1,0-1.41,1.41l10.44,10.5a1,1,0,1,0,1.42-1.41Zm-20.22-8A10.83,10.83,0,1,1,32.14,21.08,10.84,10.84,0,0,1,21.31,31.91Z" style="fill:#231f20"/><path d="M45,0H5A5,5,0,0,0,0,5V45a5,5,0,0,0,5,5H45a5,5,0,0,0,5-5V5A5,5,0,0,0,45,0ZM25,45.33A20.32,20.32,0,1,1,45.31,25,20.33,20.33,0,0,1,25,45.33Z" style="fill:none"/></g></g></svg>