<svg id="loupe" xmlns="http://www.w3.org/2000/svg" viewBox="0 0 50 50">
	<style type="text/css">
		.st0{fill:none;}
	</style>
	<g>
		<path class="st0" d="M45,0H5C2.24,0,0,2.24,0,5v40c0,2.76,2.24,5,5,5h40c2.76,0,5-2.24,5-5V5C50,2.24,47.76,0,45,0z M25,45.33
			C13.78,45.34,4.68,36.24,4.67,25.02S13.76,4.7,24.98,4.69S45.3,13.78,45.31,25C45.31,36.22,36.22,45.32,25,45.33z"/>
	</g>
	<path d="M11.67,36.74c0,0.43,0.17,0.84,0.48,1.14c0.3,0.3,0.71,0.47,1.14,0.47c0,0,0,0,0,0c0.43,0,0.84-0.17,1.14-0.48l7.19-7.23
		c3.92,2.88,9.29,2.71,13.04-0.51c4.4-3.77,4.91-10.42,1.14-14.82c-3.77-4.4-10.42-4.91-14.82-1.14c-4.19,3.59-4.85,9.8-1.64,14.18
		l-7.2,7.23C11.84,35.9,11.67,36.31,11.67,36.74z M20.6,22.27c0-3.96,3.21-7.17,7.15-7.17s7.15,3.21,7.15,7.15s-3.21,7.15-7.15,7.15
		h-0.56C23.51,29.11,20.6,26.03,20.6,22.27z"/>
	<path class="st0" d="M25.01,45.32C13.79,45.33,4.69,36.23,4.68,25.01S13.77,4.69,24.99,4.68s20.32,9.09,20.33,20.31
		C45.32,36.21,36.23,45.31,25.01,45.32z"/>
</svg>
