<svg xmlns="http://www.w3.org/2000/svg" viewBox="0 0 50 50"><title>Menuicon-</title><g id="Calque_2" data-name="Calque 2"><g id="Menu"><path d="M13.28,17.42H37a1,1,0,0,0,0-2H13.28a1,1,0,0,0,0,2Z" style="fill:#231f20"/><path d="M37,23.92H13.28a1,1,0,0,0,0,2H37a1,1,0,0,0,0-2Z" style="fill:#231f20"/><path d="M37,32.42H13.28a1,1,0,0,0,0,2H37a1,1,0,0,0,0-2Z" style="fill:#231f20"/><path d="M45,0H5A5,5,0,0,0,0,5V45a5,5,0,0,0,5,5H45a5,5,0,0,0,5-5V5A5,5,0,0,0,45,0ZM25,45.33A20.32,20.32,0,1,1,45.31,25,20.33,20.33,0,0,1,25,45.33Z" style="fill:none"/></g></g></svg>