<svg id="menu" xmlns="http://www.w3.org/2000/svg" viewBox="0 0 50 50">
	<g>
		<path d="M14.64,18.95h20.72c0.83,0,1.5-0.67,1.5-1.5s-0.67-1.5-1.5-1.5H14.64c-0.83,0-1.5,0.67-1.5,1.5S13.81,18.95,14.64,18.95z"/>
		<path d="M35.36,23.45H14.64c-0.83,0-1.5,0.67-1.5,1.5s0.67,1.5,1.5,1.5h20.72c0.83,0,1.5-0.67,1.5-1.5S36.19,23.45,35.36,23.45z"/>
		<path d="M35.36,30.95H14.64c-0.83,0-1.5,0.67-1.5,1.5c0,0.83,0.67,1.5,1.5,1.5h20.72c0.83,0,1.5-0.67,1.5-1.5
			C36.86,31.63,36.19,30.95,35.36,30.95z"/>
	</g>
	<path style="fill:none" d="M45-0.05H5c-2.76,0-5,2.24-5,5v40c0,2.76,2.24,5,5,5h40c2.76,0,5-2.24,5-5v-40C50,2.19,47.76-0.05,45-0.05z
		M25,45.29C13.78,45.3,4.68,36.21,4.67,24.98C4.66,13.76,13.76,4.66,24.98,4.65c11.22-0.01,20.32,9.08,20.33,20.3
		c0.01,11.22-9.08,20.33-20.3,20.34C25.01,45.29,25,45.29,25,45.29z"/>
</svg>
