<?xml version="1.0" encoding="utf-8"?>
<!-- Generator: Adobe Illustrator 26.0.2, SVG Export Plug-In . SVG Version: 6.00 Build 0)  -->
<svg version="1.1" id="Calque_1" xmlns="http://www.w3.org/2000/svg" xmlns:xlink="http://www.w3.org/1999/xlink" x="0px" y="0px"
	 viewBox="0 0 102.6 129.8" style="enable-background:new 0 0 102.6 129.8;" xml:space="preserve">
<style type="text/css">
	.st0{fill:#EB212E;}
	.st1{fill:#FFC103;}
	.st2{fill:#0099FF;}
	.st3{fill:#D9D9D9;}
</style>
<g>
	<path d="M0.1,0v101.4c0,8.7,6.7,15.6,15.3,15.6h24.1c3.2,0,7.4,2.2,9.5,8.3l1.2,3.4c0.3,0.7,0.7,1.1,1.2,1.1c0.5,0,0.9-0.4,1.2-1.1
		l1.2-3.4c2.1-6.1,6.3-8.3,9.5-8.3h24.1c8.6,0,15.3-6.8,15.3-15.6V0H0.1z"/>
	<g>
		<rect x="2.5" y="2.4" class="st0" width="39.7" height="47"/>
		<path class="st0" d="M2.5,67.6v33.8c0,7.6,5.9,13.1,12.9,13.1c0,0,24.1,0,24.1,0c0.9,0,1.8,0.1,2.7,0.4V67.6H2.5z"/>
		<rect x="60.4" y="2.4" class="st0" width="39.7" height="47"/>
		<path class="st0" d="M60.4,114.9c0.9-0.3,1.9-0.4,2.7-0.4c0,0,24.1,0,24.1,0c7,0,12.9-5.5,12.9-13.1V67.6H60.4V114.9z"/>
	</g>
	<path class="st1" d="M60.4,49.4v-47H42.2v47H2.5v18.2h39.7v47.3c3.4,1,7.1,3.8,9.1,9.5c2-5.7,5.6-8.6,9.1-9.5V67.6h39.7V49.4H60.4z
		"/>
	<g>
		<path d="M17.2,21.8c0.1,0.3-0.1,0.5-0.3,0.6c-0.4,0.2-1.6,0.3-2.1,0.1c0,0-0.6,1.1-1.5,1.1c-0.9,0-1.5-1.1-1.5-1.1
			c-0.5,0.1-1.7,0.1-2.1-0.1c-0.2-0.1-0.4-0.4-0.3-0.6c0.3-1,1.1-4.1,1.3-5.2l-1.6,0.6c-0.3,1.2-1.1,3.2-2.6,3.3
			c-0.2,0-0.5-0.1-0.5-0.3c0.2-1.7,1.2-9.2,1.3-10c0.1-0.7,0.3-1.1,0.8-1.2C8.6,9,9,9.1,9.5,9.6c0.4,0.4,1.9,1.7,1.9,1.7
			s0.2-1.2,0.2-1.6c-0.2,0-0.4,0-0.4,0c-0.2,0-0.4-0.2-0.4-0.4L11,7.8c0-0.2,0.1-0.3,0.2-0.3c0,0,0.6-0.3,1.2-0.5
			c0.5-0.2,0.9-0.2,0.9-0.2c0.4,0,0.8,0.1,1,0.3c0.3,0.2,0.5,0.6,0.5,1l0.3,3.2c0,0,1.5-1.4,1.9-1.7c0.5-0.5,0.9-0.6,1.4-0.4
			c0.5,0.2,0.7,0.5,0.8,1.2c0.1,0.7,1.1,8.3,1.3,10c0,0.2-0.3,0.3-0.5,0.3c-1.5-0.1-2.3-2.1-2.6-3.3l-1.6-0.6
			C16.1,17.7,16.9,20.9,17.2,21.8z"/>
		<path d="M35.4,21.8c0.1,0.3-0.1,0.5-0.3,0.6c-0.4,0.2-1.6,0.3-2.1,0.1c0,0-0.6,1.1-1.5,1.1c-0.9,0-1.5-1.1-1.5-1.1
			c-0.5,0.1-1.7,0.1-2.1-0.1c-0.2-0.1-0.4-0.4-0.3-0.6c0.3-1,1.1-4.1,1.3-5.2l-1.6,0.6c-0.3,1.2-1.1,3.2-2.6,3.3
			c-0.2,0-0.5-0.1-0.5-0.3c0.2-1.7,1.2-9.2,1.3-10c0.1-0.7,0.3-1.1,0.8-1.2c0.5-0.2,0.9,0,1.4,0.4c0.4,0.4,1.9,1.7,1.9,1.7
			s0.2-1.2,0.2-1.6c-0.2,0-0.4,0-0.4,0c-0.2,0-0.4-0.2-0.4-0.4l0.2-1.5c0-0.2,0.1-0.3,0.2-0.3c0,0,0.6-0.3,1.2-0.5
			c0.5-0.2,0.9-0.2,0.9-0.2c0.4,0,0.8,0.1,1,0.3C32.8,7.3,33,7.6,33,8l0.3,3.2c0,0,1.5-1.4,1.9-1.7c0.5-0.5,0.9-0.6,1.4-0.4
			c0.5,0.2,0.7,0.5,0.8,1.2c0.1,0.7,1.1,8.3,1.3,10c0,0.2-0.3,0.3-0.5,0.3c-1.5-0.1-2.3-2.1-2.6-3.3L34,16.6
			C34.3,17.7,35.1,20.9,35.4,21.8z"/>
		<path d="M17.2,43.3c0.1,0.3-0.1,0.5-0.3,0.6c-0.4,0.2-1.6,0.3-2.1,0.1c0,0-0.6,1.1-1.5,1.1c-0.9,0-1.5-1.1-1.5-1.1
			c-0.5,0.2-1.7,0.1-2.1-0.1c-0.2-0.1-0.4-0.3-0.3-0.6c0.3-1,1.1-4.1,1.3-5.2l-1.6,0.6c-0.3,1.2-1.1,3.2-2.6,3.3
			C6.2,42,5.9,42,6,41.8c0.2-1.7,1.2-9.2,1.3-10c0.1-0.7,0.3-1.1,0.8-1.2c0.5-0.2,0.9,0,1.4,0.4c0.4,0.4,1.9,1.7,1.9,1.7
			s0.2-1.2,0.2-1.6c-0.2,0-0.4,0-0.4,0c-0.2,0-0.4-0.2-0.4-0.4l0.2-1.5c0-0.2,0.1-0.3,0.2-0.4c0,0,0.6-0.3,1.2-0.5
			c0.5-0.2,0.9-0.2,0.9-0.2c0.4,0,0.8,0.1,1,0.3c0.3,0.2,0.5,0.6,0.5,1l0.3,3.2c0,0,1.5-1.4,1.9-1.7c0.5-0.5,0.9-0.6,1.4-0.4
			c0.5,0.2,0.7,0.5,0.8,1.2c0.1,0.7,1.1,8.3,1.3,10c0,0.2-0.3,0.3-0.5,0.3c-1.5-0.1-2.3-2.1-2.6-3.3l-1.6-0.6
			C16.1,39.2,16.9,42.3,17.2,43.3z"/>
		<path d="M35.4,43.3c0.1,0.3-0.1,0.5-0.3,0.6c-0.4,0.2-1.6,0.3-2.1,0.1c0,0-0.6,1.1-1.5,1.1c-0.9,0-1.5-1.1-1.5-1.1
			c-0.5,0.2-1.7,0.1-2.1-0.1c-0.2-0.1-0.4-0.3-0.3-0.6c0.3-1,1.1-4.1,1.3-5.2l-1.6,0.6c-0.3,1.2-1.1,3.2-2.6,3.3
			c-0.2,0-0.5-0.1-0.5-0.3c0.2-1.7,1.2-9.2,1.3-10c0.1-0.7,0.3-1.1,0.8-1.2c0.5-0.2,0.9,0,1.4,0.4c0.4,0.4,1.9,1.7,1.9,1.7
			s0.2-1.2,0.2-1.6c-0.2,0-0.4,0-0.4,0c-0.2,0-0.4-0.2-0.4-0.4l0.2-1.5c0-0.2,0.1-0.3,0.2-0.4c0,0,0.6-0.3,1.2-0.5
			c0.5-0.2,0.9-0.2,0.9-0.2c0.4,0,0.8,0.1,1,0.3c0.3,0.2,0.5,0.6,0.5,1l0.3,3.2c0,0,1.5-1.4,1.9-1.7c0.5-0.5,0.9-0.6,1.4-0.4
			c0.5,0.2,0.7,0.5,0.8,1.2c0.1,0.7,1.1,8.3,1.3,10c0,0.2-0.3,0.3-0.5,0.3c-1.5-0.1-2.3-2.1-2.6-3.3L34,38.1
			C34.3,39.2,35.1,42.3,35.4,43.3z"/>
		<path d="M75,21.8c0.1,0.3-0.1,0.5-0.3,0.6c-0.4,0.2-1.6,0.3-2.1,0.1c0,0-0.6,1.1-1.5,1.1s-1.5-1.1-1.5-1.1
			c-0.5,0.1-1.7,0.1-2.1-0.1c-0.2-0.1-0.4-0.4-0.3-0.6c0.3-1,1.1-4.1,1.3-5.2l-1.6,0.6c-0.3,1.2-1.1,3.2-2.6,3.3
			c-0.2,0-0.5-0.1-0.5-0.3c0.2-1.7,1.2-9.2,1.3-10c0.1-0.7,0.3-1.1,0.8-1.2c0.5-0.2,0.9,0,1.4,0.4c0.4,0.4,1.9,1.7,1.9,1.7
			s0.2-1.2,0.2-1.6c-0.2,0-0.4,0-0.4,0c-0.2,0-0.4-0.2-0.4-0.4l0.2-1.5c0-0.2,0.1-0.3,0.2-0.3c0,0,0.6-0.3,1.2-0.5
			c0.5-0.2,0.9-0.2,0.9-0.2c0.4,0,0.8,0.1,1,0.3c0.3,0.2,0.5,0.6,0.5,1l0.3,3.2c0,0,1.5-1.4,1.9-1.7c0.5-0.5,0.9-0.6,1.4-0.4
			c0.5,0.2,0.7,0.5,0.8,1.2c0.1,0.7,1.1,8.3,1.3,10c0,0.2-0.3,0.3-0.5,0.3c-1.5-0.1-2.3-2.1-2.6-3.3l-1.6-0.6
			C74,17.7,74.8,20.9,75,21.8z"/>
		<path d="M93.2,21.8c0.1,0.3-0.1,0.5-0.3,0.6c-0.4,0.2-1.6,0.3-2.1,0.1c0,0-0.6,1.1-1.5,1.1s-1.5-1.1-1.5-1.1
			c-0.5,0.1-1.7,0.1-2.1-0.1c-0.2-0.1-0.4-0.4-0.3-0.6c0.3-1,1.1-4.1,1.3-5.2l-1.6,0.6c-0.3,1.2-1.1,3.2-2.6,3.3
			c-0.2,0-0.5-0.1-0.5-0.3c0.2-1.7,1.2-9.2,1.3-10c0.1-0.7,0.3-1.1,0.8-1.2c0.5-0.2,0.9,0,1.4,0.4c0.4,0.4,1.9,1.7,1.9,1.7
			s0.2-1.2,0.2-1.6c-0.2,0-0.4,0-0.4,0c-0.2,0-0.4-0.2-0.4-0.4L87,7.8c0-0.2,0.1-0.3,0.2-0.3c0,0,0.6-0.3,1.2-0.5
			c0.5-0.2,0.9-0.2,0.9-0.2c0.4,0,0.8,0.1,1,0.3c0.3,0.2,0.5,0.6,0.5,1l0.3,3.2c0,0,1.5-1.4,1.9-1.7C93.6,9.1,94,9,94.5,9.1
			c0.5,0.2,0.7,0.5,0.8,1.2c0.1,0.7,1.1,8.3,1.3,10c0,0.2-0.3,0.3-0.5,0.3c-1.5-0.1-2.3-2.1-2.6-3.3l-1.6-0.6
			C92.2,17.7,93,20.9,93.2,21.8z"/>
		<path d="M75,43.3c0.1,0.3-0.1,0.5-0.3,0.6c-0.4,0.2-1.6,0.3-2.1,0.1c0,0-0.6,1.1-1.5,1.1s-1.5-1.1-1.5-1.1
			c-0.5,0.2-1.7,0.1-2.1-0.1c-0.2-0.1-0.4-0.3-0.3-0.6c0.3-1,1.1-4.1,1.3-5.2l-1.6,0.6c-0.3,1.2-1.1,3.2-2.6,3.3
			c-0.2,0-0.5-0.1-0.5-0.3c0.2-1.7,1.2-9.2,1.3-10c0.1-0.7,0.3-1.1,0.8-1.2c0.5-0.2,0.9,0,1.4,0.4c0.4,0.4,1.9,1.7,1.9,1.7
			s0.2-1.2,0.2-1.6c-0.2,0-0.4,0-0.4,0c-0.2,0-0.4-0.2-0.4-0.4l0.2-1.5c0-0.2,0.1-0.3,0.2-0.4c0,0,0.6-0.3,1.2-0.5
			c0.5-0.2,0.9-0.2,0.9-0.2c0.4,0,0.8,0.1,1,0.3c0.3,0.2,0.5,0.6,0.5,1l0.3,3.2c0,0,1.5-1.4,1.9-1.7c0.5-0.5,0.9-0.6,1.4-0.4
			c0.5,0.2,0.7,0.5,0.8,1.2c0.1,0.7,1.1,8.3,1.3,10c0,0.2-0.3,0.3-0.5,0.3c-1.5-0.1-2.3-2.1-2.6-3.3l-1.6-0.6
			C74,39.2,74.8,42.3,75,43.3z"/>
		<path d="M93.2,43.3c0.1,0.3-0.1,0.5-0.3,0.6c-0.4,0.2-1.6,0.3-2.1,0.1c0,0-0.6,1.1-1.5,1.1s-1.5-1.1-1.5-1.1
			c-0.5,0.2-1.7,0.1-2.1-0.1c-0.2-0.1-0.4-0.3-0.3-0.6c0.3-1,1.1-4.1,1.3-5.2l-1.6,0.6c-0.3,1.2-1.1,3.2-2.6,3.3
			C82.3,42,82,42,82,41.8c0.2-1.7,1.2-9.2,1.3-10c0.1-0.7,0.3-1.1,0.8-1.2c0.5-0.2,0.9,0,1.4,0.4c0.4,0.4,1.9,1.7,1.9,1.7
			s0.2-1.2,0.2-1.6c-0.2,0-0.4,0-0.4,0c-0.2,0-0.4-0.2-0.4-0.4l0.2-1.5c0-0.2,0.1-0.3,0.2-0.4c0,0,0.6-0.3,1.2-0.5
			c0.5-0.2,0.9-0.2,0.9-0.2c0.4,0,0.8,0.1,1,0.3c0.3,0.2,0.5,0.6,0.5,1l0.3,3.2c0,0,1.5-1.4,1.9-1.7c0.5-0.5,0.9-0.6,1.4-0.4
			c0.5,0.2,0.7,0.5,0.8,1.2c0.1,0.7,1.1,8.3,1.3,10c0,0.2-0.3,0.3-0.5,0.3c-1.5-0.1-2.3-2.1-2.6-3.3l-1.6-0.6
			C92.2,39.2,93,42.3,93.2,43.3z"/>
		<path d="M17.2,87c0.1,0.3-0.1,0.5-0.3,0.6c-0.4,0.2-1.6,0.3-2.1,0.1c0,0-0.6,1.1-1.5,1.1c-0.9,0-1.5-1.1-1.5-1.1
			c-0.5,0.2-1.7,0.1-2.1-0.1c-0.2-0.1-0.4-0.4-0.3-0.6c0.3-1,1.1-4.1,1.3-5.2l-1.6,0.6c-0.3,1.2-1.1,3.2-2.6,3.3
			c-0.2,0-0.5-0.1-0.5-0.3c0.2-1.7,1.2-9.2,1.3-10c0.1-0.7,0.3-1.1,0.8-1.2c0.5-0.2,0.9,0,1.4,0.4c0.4,0.4,1.9,1.7,1.9,1.7
			s0.2-1.2,0.2-1.6c-0.2,0-0.4,0-0.4,0c-0.2,0-0.4-0.2-0.4-0.4l0.2-1.5c0-0.2,0.1-0.3,0.2-0.3c0,0,0.6-0.3,1.2-0.5
			c0.5-0.2,0.9-0.2,0.9-0.2c0.4,0,0.8,0.1,1,0.3c0.3,0.2,0.5,0.6,0.5,1l0.3,3.2c0,0,1.5-1.4,1.9-1.7c0.5-0.5,0.9-0.6,1.4-0.4
			c0.5,0.2,0.7,0.5,0.8,1.2c0.1,0.7,1.1,8.3,1.3,10c0,0.2-0.3,0.3-0.5,0.3c-1.5-0.1-2.3-2.1-2.6-3.3l-1.6-0.6
			C16.1,82.9,16.9,86,17.2,87z"/>
		<path d="M35.4,87c0.1,0.3-0.1,0.5-0.3,0.6c-0.4,0.2-1.6,0.3-2.1,0.1c0,0-0.6,1.1-1.5,1.1c-0.9,0-1.5-1.1-1.5-1.1
			c-0.5,0.2-1.7,0.1-2.1-0.1c-0.2-0.1-0.4-0.4-0.3-0.6c0.3-1,1.1-4.1,1.3-5.2l-1.6,0.6c-0.3,1.2-1.1,3.2-2.6,3.3
			c-0.2,0-0.5-0.1-0.5-0.3c0.2-1.7,1.2-9.2,1.3-10c0.1-0.7,0.3-1.1,0.8-1.2c0.5-0.2,0.9,0,1.4,0.4c0.4,0.4,1.9,1.7,1.9,1.7
			s0.2-1.2,0.2-1.6c-0.2,0-0.4,0-0.4,0c-0.2,0-0.4-0.2-0.4-0.4l0.2-1.5c0-0.2,0.1-0.3,0.2-0.3c0,0,0.6-0.3,1.2-0.5
			c0.5-0.2,0.9-0.2,0.9-0.2c0.4,0,0.8,0.1,1,0.3c0.3,0.2,0.5,0.6,0.5,1l0.3,3.2c0,0,1.5-1.4,1.9-1.7c0.5-0.5,0.9-0.6,1.4-0.4
			c0.5,0.2,0.7,0.5,0.8,1.2c0.1,0.7,1.1,8.3,1.3,10c0,0.2-0.3,0.3-0.5,0.3c-1.5-0.1-2.3-2.1-2.6-3.3L34,81.8
			C34.3,82.9,35.1,86,35.4,87z"/>
		<path d="M17.2,108.4c0.1,0.3-0.1,0.5-0.3,0.6c-0.4,0.2-1.6,0.3-2.1,0.1c0,0-0.6,1.1-1.5,1.1c-0.9,0-1.5-1.1-1.5-1.1
			c-0.5,0.2-1.7,0.1-2.1-0.1c-0.2-0.1-0.4-0.3-0.3-0.6c0.3-1,1.1-4.1,1.3-5.2l-1.6,0.6c-0.3,1.2-1.1,3.2-2.6,3.3
			c-0.2,0-0.5-0.1-0.5-0.3c0.2-1.7,1.2-9.2,1.3-10c0.1-0.7,0.3-1.1,0.8-1.2c0.5-0.2,0.9,0,1.4,0.4c0.4,0.4,1.9,1.7,1.9,1.7
			s0.2-1.2,0.2-1.6c-0.2,0-0.4,0-0.4,0c-0.2,0-0.4-0.2-0.4-0.4l0.2-1.5c0-0.2,0.1-0.3,0.2-0.3c0,0,0.6-0.3,1.2-0.5
			c0.5-0.2,0.9-0.2,0.9-0.2c0.4,0,0.8,0.1,1,0.3c0.3,0.2,0.5,0.6,0.5,1l0.3,3.2c0,0,1.5-1.4,1.9-1.7c0.5-0.5,0.9-0.6,1.4-0.4
			c0.5,0.2,0.7,0.5,0.8,1.2c0.1,0.7,1.1,8.3,1.3,10c0,0.2-0.3,0.3-0.5,0.3c-1.5-0.1-2.3-2.1-2.6-3.3l-1.6-0.6
			C16.1,104.3,16.9,107.4,17.2,108.4z"/>
		<path d="M35.4,108.4c0.1,0.3-0.1,0.5-0.3,0.6c-0.4,0.2-1.6,0.3-2.1,0.1c0,0-0.6,1.1-1.5,1.1c-0.9,0-1.5-1.1-1.5-1.1
			c-0.5,0.2-1.7,0.1-2.1-0.1c-0.2-0.1-0.4-0.3-0.3-0.6c0.3-1,1.1-4.1,1.3-5.2l-1.6,0.6c-0.3,1.2-1.1,3.2-2.6,3.3
			c-0.2,0-0.5-0.1-0.5-0.3c0.2-1.7,1.2-9.2,1.3-10c0.1-0.7,0.3-1.1,0.8-1.2c0.5-0.2,0.9,0,1.4,0.4c0.4,0.4,1.9,1.7,1.9,1.7
			s0.2-1.2,0.2-1.6c-0.2,0-0.4,0-0.4,0c-0.2,0-0.4-0.2-0.4-0.4l0.2-1.5c0-0.2,0.1-0.3,0.2-0.3c0,0,0.6-0.3,1.2-0.5
			c0.5-0.2,0.9-0.2,0.9-0.2c0.4,0,0.8,0.1,1,0.3c0.3,0.2,0.5,0.6,0.5,1l0.3,3.2c0,0,1.5-1.4,1.9-1.7c0.5-0.5,0.9-0.6,1.4-0.4
			c0.5,0.2,0.7,0.5,0.8,1.2c0.1,0.7,1.1,8.3,1.3,10c0,0.2-0.3,0.3-0.5,0.3c-1.5-0.1-2.3-2.1-2.6-3.3l-1.6-0.6
			C34.3,104.3,35.1,107.4,35.4,108.4z"/>
		<path d="M75,87c0.1,0.3-0.1,0.5-0.3,0.6c-0.4,0.2-1.6,0.3-2.1,0.1c0,0-0.6,1.1-1.5,1.1s-1.5-1.1-1.5-1.1c-0.5,0.2-1.7,0.1-2.1-0.1
			c-0.2-0.1-0.4-0.4-0.3-0.6c0.3-1,1.1-4.1,1.3-5.2l-1.6,0.6c-0.3,1.2-1.1,3.2-2.6,3.3c-0.2,0-0.5-0.1-0.5-0.3
			c0.2-1.7,1.2-9.2,1.3-10c0.1-0.7,0.3-1.1,0.8-1.2c0.5-0.2,0.9,0,1.4,0.4c0.4,0.4,1.9,1.7,1.9,1.7s0.2-1.2,0.2-1.6
			c-0.2,0-0.4,0-0.4,0c-0.2,0-0.4-0.2-0.4-0.4l0.2-1.5c0-0.2,0.1-0.3,0.2-0.3c0,0,0.6-0.3,1.2-0.5c0.5-0.2,0.9-0.2,0.9-0.2
			c0.4,0,0.8,0.1,1,0.3c0.3,0.2,0.5,0.6,0.5,1l0.3,3.2c0,0,1.5-1.4,1.9-1.7c0.5-0.5,0.9-0.6,1.4-0.4c0.5,0.2,0.7,0.5,0.8,1.2
			c0.1,0.7,1.1,8.3,1.3,10c0,0.2-0.3,0.3-0.5,0.3c-1.5-0.1-2.3-2.1-2.6-3.3l-1.6-0.6C74,82.9,74.8,86,75,87z"/>
		<path d="M93.2,87c0.1,0.3-0.1,0.5-0.3,0.6c-0.4,0.2-1.6,0.3-2.1,0.1c0,0-0.6,1.1-1.5,1.1s-1.5-1.1-1.5-1.1
			c-0.5,0.2-1.7,0.1-2.1-0.1c-0.2-0.1-0.4-0.4-0.3-0.6c0.3-1,1.1-4.1,1.3-5.2l-1.6,0.6c-0.3,1.2-1.1,3.2-2.6,3.3
			c-0.2,0-0.5-0.1-0.5-0.3c0.2-1.7,1.2-9.2,1.3-10c0.1-0.7,0.3-1.1,0.8-1.2c0.5-0.2,0.9,0,1.4,0.4c0.4,0.4,1.9,1.7,1.9,1.7
			s0.2-1.2,0.2-1.6c-0.2,0-0.4,0-0.4,0c-0.2,0-0.4-0.2-0.4-0.4l0.2-1.5c0-0.2,0.1-0.3,0.2-0.3c0,0,0.6-0.3,1.2-0.5
			c0.5-0.2,0.9-0.2,0.9-0.2c0.4,0,0.8,0.1,1,0.3c0.3,0.2,0.5,0.6,0.5,1l0.3,3.2c0,0,1.5-1.4,1.9-1.7c0.5-0.5,0.9-0.6,1.4-0.4
			c0.5,0.2,0.7,0.5,0.8,1.2c0.1,0.7,1.1,8.3,1.3,10c0,0.2-0.3,0.3-0.5,0.3c-1.5-0.1-2.3-2.1-2.6-3.3l-1.6-0.6
			C92.2,82.9,93,86,93.2,87z"/>
		<path d="M75,108.4c0.1,0.3-0.1,0.5-0.3,0.6c-0.4,0.2-1.6,0.3-2.1,0.1c0,0-0.6,1.1-1.5,1.1s-1.5-1.1-1.5-1.1
			c-0.5,0.2-1.7,0.1-2.1-0.1c-0.2-0.1-0.4-0.3-0.3-0.6c0.3-1,1.1-4.1,1.3-5.2l-1.6,0.6c-0.3,1.2-1.1,3.2-2.6,3.3
			c-0.2,0-0.5-0.1-0.5-0.3c0.2-1.7,1.2-9.2,1.3-10c0.1-0.7,0.3-1.1,0.8-1.2c0.5-0.2,0.9,0,1.4,0.4c0.4,0.4,1.9,1.7,1.9,1.7
			s0.2-1.2,0.2-1.6c-0.2,0-0.4,0-0.4,0c-0.2,0-0.4-0.2-0.4-0.4l0.2-1.5c0-0.2,0.1-0.3,0.2-0.3c0,0,0.6-0.3,1.2-0.5
			c0.5-0.2,0.9-0.2,0.9-0.2c0.4,0,0.8,0.1,1,0.3c0.3,0.2,0.5,0.6,0.5,1l0.3,3.2c0,0,1.5-1.4,1.9-1.7c0.5-0.5,0.9-0.6,1.4-0.4
			c0.5,0.2,0.7,0.5,0.8,1.2c0.1,0.7,1.1,8.3,1.3,10c0,0.2-0.3,0.3-0.5,0.3c-1.5-0.1-2.3-2.1-2.6-3.3l-1.6-0.6
			C74,104.3,74.8,107.4,75,108.4z"/>
		<path d="M93.2,108.4c0.1,0.3-0.1,0.5-0.3,0.6c-0.4,0.2-1.6,0.3-2.1,0.1c0,0-0.6,1.1-1.5,1.1s-1.5-1.1-1.5-1.1
			c-0.5,0.2-1.7,0.1-2.1-0.1c-0.2-0.1-0.4-0.3-0.3-0.6c0.3-1,1.1-4.1,1.3-5.2l-1.6,0.6c-0.3,1.2-1.1,3.2-2.6,3.3
			c-0.2,0-0.5-0.1-0.5-0.3c0.2-1.7,1.2-9.2,1.3-10c0.1-0.7,0.3-1.1,0.8-1.2c0.5-0.2,0.9,0,1.4,0.4c0.4,0.4,1.9,1.7,1.9,1.7
			s0.2-1.2,0.2-1.6c-0.2,0-0.4,0-0.4,0c-0.2,0-0.4-0.2-0.4-0.4l0.2-1.5c0-0.2,0.1-0.3,0.2-0.3c0,0,0.6-0.3,1.2-0.5
			c0.5-0.2,0.9-0.2,0.9-0.2c0.4,0,0.8,0.1,1,0.3c0.3,0.2,0.5,0.6,0.5,1l0.3,3.2c0,0,1.5-1.4,1.9-1.7c0.5-0.5,0.9-0.6,1.4-0.4
			c0.5,0.2,0.7,0.5,0.8,1.2c0.1,0.7,1.1,8.3,1.3,10c0,0.2-0.3,0.3-0.5,0.3c-1.5-0.1-2.3-2.1-2.6-3.3l-1.6-0.6
			C92.2,104.3,93,107.4,93.2,108.4z"/>
	</g>
	<g>
		<path d="M51.3,32.6c0.8,0,1.5-0.4,1.9-1c0.3,0.2,0.7,0.2,1,0.2c1.1,0,2.1-0.9,2.2-2c1.2,0,2.2-1,2.2-2.2c0-0.5-0.2-1-0.5-1.4
			c-0.5-0.6-2.5-3-2.5-3c0-0.1,0-1.2,0-1.2c0-0.6-0.5-1.1-1.1-1.1c0,0-1,0-1.1,0c-0.1-0.1-1-1-1-1c-0.3-0.3-0.6-0.4-1-0.4
			c-0.4,0-0.8,0.2-1,0.4c0,0-0.9,0.9-1,1c-0.1,0-1.1,0-1.1,0c-0.6,0-1.1,0.5-1.1,1.1c0,0,0,1.1,0,1.2c0,0-2,2.4-2.5,3
			c-0.3,0.4-0.5,0.9-0.5,1.4c0,1.2,1,2.2,2.2,2.2c0.1,1.1,1,2,2.2,2c0.4,0,0.7-0.1,1-0.2C49.8,32.2,50.5,32.6,51.3,32.6z"/>
		<path d="M51.3,65.2c0.8,0,1.5-0.4,1.9-1c0.3,0.2,0.7,0.2,1,0.2c1.1,0,2.1-0.9,2.2-2c1.2,0,2.2-1,2.2-2.2c0-0.5-0.2-1-0.5-1.4
			c-0.5-0.6-2.5-3-2.5-3c0-0.1,0-1.2,0-1.2c0-0.6-0.5-1.1-1.1-1.1c0,0-1,0-1.1,0c-0.1-0.1-1-1-1-1c-0.3-0.3-0.6-0.4-1-0.4
			c-0.4,0-0.8,0.2-1,0.4c0,0-0.9,0.9-1,1c-0.1,0-1.1,0-1.1,0c-0.6,0-1.1,0.5-1.1,1.1c0,0,0,1.1,0,1.2c0,0-2,2.4-2.5,3
			c-0.3,0.4-0.5,0.9-0.5,1.4c0,1.2,1,2.2,2.2,2.2c0.1,1.1,1,2,2.2,2c0.4,0,0.7-0.1,1-0.2C49.8,64.8,50.5,65.2,51.3,65.2z"/>
		<path d="M22.4,65.2c0.8,0,1.5-0.4,1.9-1c0.3,0.2,0.7,0.2,1,0.2c1.1,0,2.1-0.9,2.2-2c1.2,0,2.2-1,2.2-2.2c0-0.5-0.2-1-0.5-1.4
			c-0.5-0.6-2.5-3-2.5-3c0-0.1,0-1.2,0-1.2c0-0.6-0.5-1.1-1.1-1.1c0,0-1,0-1.1,0c-0.1-0.1-1-1-1-1c-0.3-0.3-0.6-0.4-1-0.4
			s-0.8,0.2-1,0.4c0,0-0.9,0.9-1,1c-0.1,0-1.1,0-1.1,0c-0.6,0-1.1,0.5-1.1,1.1c0,0,0,1.1,0,1.2c0,0-2,2.4-2.5,3
			c-0.3,0.4-0.5,0.9-0.5,1.4c0,1.2,1,2.2,2.2,2.2c0.1,1.1,1.1,2,2.2,2c0.4,0,0.7-0.1,1-0.2C20.9,64.8,21.6,65.2,22.4,65.2z"/>
		<path d="M80.2,65.2c0.8,0,1.5-0.4,1.9-1c0.3,0.2,0.7,0.2,1,0.2c1.1,0,2.1-0.9,2.2-2c1.2,0,2.2-1,2.2-2.2c0-0.5-0.2-1-0.5-1.4
			c-0.5-0.6-2.5-3-2.5-3c0-0.1,0-1.2,0-1.2c0-0.6-0.5-1.1-1.1-1.1c0,0-1,0-1.1,0c-0.1-0.1-1-1-1-1c-0.3-0.3-0.6-0.4-1-0.4
			s-0.8,0.2-1,0.4c0,0-0.9,0.9-1,1c-0.1,0-1.1,0-1.1,0c-0.6,0-1.1,0.5-1.1,1.1c0,0,0,1.1,0,1.2c0,0-2,2.4-2.5,3
			c-0.3,0.4-0.5,0.9-0.5,1.4c0,1.2,1,2.2,2.2,2.2c0.1,1.1,1.1,2,2.2,2c0.4,0,0.7-0.1,1-0.2C78.8,64.8,79.5,65.2,80.2,65.2z"/>
		<path d="M51.3,97.7c0.8,0,1.5-0.4,1.9-1c0.3,0.2,0.7,0.2,1,0.2c1.1,0,2.1-0.9,2.2-2c1.2,0,2.2-1,2.2-2.2c0-0.5-0.2-1-0.5-1.4
			c-0.5-0.6-2.5-3-2.5-3c0-0.1,0-1.2,0-1.2c0-0.6-0.5-1.1-1.1-1.1c0,0-1,0-1.1,0c-0.1-0.1-1-1-1-1c-0.3-0.3-0.6-0.4-1-0.4
			c-0.4,0-0.8,0.2-1,0.4c0,0-0.9,0.9-1,1c-0.1,0-1.1,0-1.1,0c-0.6,0-1.1,0.5-1.1,1.1c0,0,0,1.1,0,1.2c0,0-2,2.4-2.5,3
			c-0.3,0.4-0.5,0.9-0.5,1.4c0,1.2,1,2.2,2.2,2.2c0.1,1.1,1,2,2.2,2c0.4,0,0.7-0.1,1-0.2C49.8,97.3,50.5,97.7,51.3,97.7z"/>
	</g>
	<g>
		<path class="st2" d="M51.3,31.9c0.5,0,1-0.3,1.2-0.7l-0.4-4c0-0.2,0.1-0.3,0.3-0.3c0.2,0,0.3,0.1,0.3,0.2l0.7,3.8
			c0.2,0.1,0.5,0.2,0.7,0.2c0.8,0,1.4-0.6,1.5-1.4L53.9,26c-0.1-0.1,0-0.3,0.2-0.4c0.1-0.1,0.3,0,0.4,0.1l1.8,3.4c0,0,0,0,0,0
			c0.8,0,1.5-0.7,1.5-1.5c0-0.3,0-0.6-0.2-0.8l-2.8-3.4V22c0-0.2-0.1-0.3-0.3-0.3c0,0-1.4,0-1.4,0l-1.2-1.2
			c-0.1-0.1-0.3-0.2-0.5-0.2s-0.4,0.1-0.5,0.2l-1.2,1.2c0,0-1.4,0-1.4,0c-0.2,0-0.3,0.1-0.3,0.3v1.5l-2.8,3.4
			c-0.2,0.2-0.2,0.5-0.2,0.8c0,0.8,0.7,1.5,1.5,1.5c0,0,0,0,0,0l1.8-3.4c0.1-0.1,0.2-0.2,0.4-0.1c0.1,0.1,0.2,0.2,0.2,0.4L47,29.8
			c0.1,0.8,0.7,1.4,1.5,1.4c0.3,0,0.5-0.1,0.7-0.2l0.7-3.8c0-0.2,0.2-0.3,0.3-0.2c0.2,0,0.3,0.2,0.3,0.3l-0.4,4
			C50.3,31.6,50.8,31.9,51.3,31.9z"/>
		<path class="st2" d="M51.3,64.5c0.5,0,1-0.3,1.2-0.7l-0.4-4c0-0.2,0.1-0.3,0.3-0.3c0.2,0,0.3,0.1,0.3,0.2l0.7,3.8
			c0.2,0.1,0.5,0.2,0.7,0.2c0.8,0,1.4-0.6,1.5-1.4l-1.6-3.8c-0.1-0.1,0-0.3,0.2-0.4c0.1-0.1,0.3,0,0.4,0.1l1.8,3.4c0,0,0,0,0,0
			c0.8,0,1.5-0.7,1.5-1.5c0-0.3,0-0.6-0.2-0.8l-2.8-3.4v-1.5c0-0.2-0.1-0.3-0.3-0.3c0,0-1.4,0-1.4,0L51.8,53
			c-0.1-0.1-0.3-0.2-0.5-0.2s-0.4,0.1-0.5,0.2l-1.2,1.2c0,0-1.4,0-1.4,0c-0.2,0-0.3,0.1-0.3,0.3v1.5l-2.8,3.4
			c-0.2,0.2-0.2,0.5-0.2,0.8c0,0.8,0.7,1.5,1.5,1.5c0,0,0,0,0,0l1.8-3.4c0.1-0.1,0.2-0.2,0.4-0.1c0.1,0.1,0.2,0.2,0.2,0.4L47,62.3
			c0.1,0.8,0.7,1.4,1.5,1.4c0.3,0,0.5-0.1,0.7-0.2l0.7-3.8c0-0.2,0.2-0.3,0.3-0.2c0.2,0,0.3,0.2,0.3,0.3l-0.4,4
			C50.3,64.1,50.8,64.4,51.3,64.5z"/>
		<path class="st2" d="M22.4,64.5c0.5,0,1-0.3,1.2-0.7l-0.4-4c0-0.2,0.1-0.3,0.3-0.3c0.2,0,0.3,0.1,0.3,0.2l0.7,3.8
			c0.2,0.1,0.5,0.2,0.7,0.2c0.8,0,1.4-0.6,1.5-1.4L25,58.5c-0.1-0.1,0-0.3,0.2-0.4c0.1-0.1,0.3,0,0.4,0.1l1.8,3.4c0,0,0,0,0,0
			c0.8,0,1.5-0.7,1.5-1.5c0-0.3,0-0.6-0.2-0.8l-2.8-3.4v-1.5c0-0.2-0.1-0.3-0.3-0.3c0,0-1.4,0-1.4,0L22.9,53
			c-0.1-0.1-0.3-0.2-0.5-0.2c-0.2,0-0.4,0.1-0.5,0.2l-1.2,1.2c0,0-1.4,0-1.4,0c-0.2,0-0.3,0.1-0.3,0.3v1.5l-2.8,3.4
			c-0.2,0.2-0.2,0.5-0.2,0.8c0,0.8,0.7,1.5,1.5,1.5c0,0,0,0,0,0l1.8-3.4c0.1-0.1,0.2-0.2,0.4-0.1c0.1,0.1,0.2,0.2,0.2,0.4l-1.6,3.8
			c0.1,0.8,0.7,1.4,1.5,1.4c0.3,0,0.5-0.1,0.7-0.2l0.7-3.8c0-0.2,0.2-0.3,0.3-0.2c0.2,0,0.3,0.2,0.3,0.3l-0.4,4
			C21.4,64.1,21.9,64.4,22.4,64.5z"/>
		<path class="st2" d="M80.2,64.5c0.5,0,1-0.3,1.2-0.7l-0.4-4c0-0.2,0.1-0.3,0.3-0.3c0.2,0,0.3,0.1,0.3,0.2l0.7,3.8
			c0.2,0.1,0.5,0.2,0.7,0.2c0.8,0,1.4-0.6,1.5-1.4l-1.6-3.8c-0.1-0.1,0-0.3,0.2-0.4c0.1-0.1,0.3,0,0.4,0.1l1.8,3.4c0,0,0,0,0,0
			c0.8,0,1.5-0.7,1.5-1.5c0-0.3,0-0.6-0.2-0.8l-2.8-3.4v-1.5c0-0.2-0.1-0.3-0.3-0.3c0,0-1.4,0-1.4,0L80.7,53
			c-0.1-0.1-0.3-0.2-0.5-0.2s-0.4,0.1-0.5,0.2l-1.2,1.2c0,0-1.4,0-1.4,0c-0.2,0-0.3,0.1-0.3,0.3v1.5L74,59.4
			c-0.2,0.2-0.2,0.5-0.2,0.8c0,0.8,0.7,1.5,1.5,1.5c0,0,0,0,0,0l1.8-3.4c0.1-0.1,0.2-0.2,0.4-0.1c0.1,0.1,0.2,0.2,0.2,0.4L76,62.3
			c0.1,0.8,0.7,1.4,1.5,1.4c0.3,0,0.5-0.1,0.7-0.2l0.7-3.8c0-0.2,0.2-0.3,0.3-0.2c0.2,0,0.3,0.2,0.3,0.3l-0.4,4
			C79.3,64.1,79.7,64.4,80.2,64.5z"/>
		<path class="st2" d="M51.3,97c0.5,0,1-0.3,1.2-0.7l-0.4-4c0-0.2,0.1-0.3,0.3-0.3c0.2,0,0.3,0.1,0.3,0.2l0.7,3.8
			c0.2,0.1,0.5,0.2,0.7,0.2c0.8,0,1.4-0.6,1.5-1.4l-1.6-3.8c-0.1-0.1,0-0.3,0.2-0.4c0.1-0.1,0.3,0,0.4,0.1l1.8,3.4c0,0,0,0,0,0
			c0.8,0,1.5-0.7,1.5-1.5c0-0.3,0-0.6-0.2-0.8l-2.8-3.4v-1.5c0-0.2-0.1-0.3-0.3-0.3c0,0-1.4,0-1.4,0l-1.2-1.2
			c-0.1-0.1-0.3-0.2-0.5-0.2s-0.4,0.1-0.5,0.2l-1.2,1.2c0,0-1.4,0-1.4,0c-0.2,0-0.3,0.1-0.3,0.3v1.5L45.1,92
			c-0.2,0.2-0.2,0.5-0.2,0.8c0,0.8,0.7,1.5,1.5,1.5c0,0,0,0,0,0l1.8-3.4c0.1-0.1,0.2-0.2,0.4-0.1c0.1,0.1,0.2,0.2,0.2,0.4L47,94.9
			c0.1,0.8,0.7,1.4,1.5,1.4c0.3,0,0.5-0.1,0.7-0.2l0.7-3.8c0-0.2,0.2-0.3,0.3-0.2c0.2,0,0.3,0.2,0.3,0.3l-0.4,4
			C50.3,96.7,50.8,97,51.3,97z"/>
	</g>
	<g>
		<path class="st3" d="M16.4,21.8c-0.3,0.1-0.9,0.1-1.1,0.1c-0.1,0-0.1,0-0.2,0l0,0L14.4,19c-0.1-0.5-0.5-0.5-0.5,0.1l0.3,3
			c-0.1,0.2-0.5,0.9-0.9,0.9c-0.4,0-0.9-0.7-0.9-0.9l0.3-3c0.1-0.6-0.4-0.6-0.5-0.1l-0.6,2.9l0,0c-0.1,0-0.1,0-0.2,0
			c-0.3,0-0.9,0-1.1-0.1c0.4-1.5,1.2-4.7,1.5-5.7c0-0.2-0.1-0.4-0.4-0.4c0,0-0.1,0-0.2,0c-0.4,0.1-1.4,0.5-1.8,0.7L9.5,14
			c0.1-0.6-0.4-0.6-0.5-0.1c-0.5,2.1-0.7,4.9-2.2,5.8c0.1-1,1.1-8.4,1.2-9.4c0-0.2,0-0.4,0.3-0.5c0.2-0.1,0.4,0,0.5,0.2
			c0,0,2.5,2.3,2.5,2.3c0.1,0.1,0.3,0.2,0.4,0.1c0.1,0,0.3-0.2,0.3-0.3l0.3-2.8c0-0.1,0-0.2-0.1-0.3c-0.1-0.1-0.2-0.1-0.3-0.1
			c0,0-0.2,0-0.4,0L11.7,8c0.3-0.1,1-0.5,1.4-0.5c0,0,0,0,0,0c0,0,0.1,0,0.1,0c0.2,0,0.4,0.1,0.6,0.2c0.2,0.1,0.2,0.3,0.3,0.5l0.4,4
			c0,0.2,0.1,0.3,0.3,0.3c0.1,0,0.3,0,0.4-0.1c0,0,2.5-2.3,2.5-2.3c0.2-0.2,0.3-0.2,0.5-0.2c0.3,0.1,0.3,0.3,0.3,0.5
			c0.1,1,1.1,8.4,1.2,9.4c-1.5-0.9-1.8-3.7-2.2-5.8c-0.1-0.5-0.6-0.5-0.5,0.1l0.2,2.4c-0.3-0.1-1.4-0.5-1.8-0.7c-0.1,0-0.1,0-0.2,0
			c-0.3,0-0.4,0.3-0.4,0.4C15.2,17.1,16,20.4,16.4,21.8z"/>
		<path class="st3" d="M34.6,21.8c-0.3,0.1-0.9,0.1-1.1,0.1c-0.1,0-0.1,0-0.2,0l0,0L32.6,19c-0.1-0.5-0.5-0.5-0.5,0.1l0.3,3
			c-0.1,0.2-0.5,0.9-0.9,0.9c-0.4,0-0.9-0.7-0.9-0.9l0.3-3c0.1-0.6-0.4-0.6-0.5-0.1l-0.6,2.9l0,0c-0.1,0-0.1,0-0.2,0
			c-0.3,0-0.9,0-1.1-0.1c0.4-1.5,1.2-4.7,1.5-5.7c0-0.2-0.1-0.4-0.4-0.4c0,0-0.1,0-0.2,0c-0.4,0.1-1.4,0.5-1.8,0.7l0.2-2.4
			c0-0.6-0.4-0.6-0.5-0.1c-0.5,2.1-0.7,4.9-2.2,5.8c0.1-1,1.1-8.4,1.2-9.4c0-0.2,0-0.4,0.3-0.5c0.2-0.1,0.4,0,0.5,0.2
			c0,0,2.5,2.3,2.5,2.3c0.1,0.1,0.3,0.2,0.4,0.1c0.1,0,0.3-0.2,0.3-0.3l0.3-2.8c0-0.1,0-0.2-0.1-0.3c-0.1-0.1-0.2-0.1-0.3-0.1
			c0,0-0.2,0-0.4,0L29.9,8c0.3-0.1,1-0.5,1.4-0.5c0,0,0,0,0,0c0,0,0.1,0,0.1,0c0.2,0,0.4,0.1,0.6,0.2c0.2,0.1,0.2,0.3,0.3,0.5l0.4,4
			c0,0.2,0.1,0.3,0.3,0.3c0.1,0,0.3,0,0.4-0.1c0,0,2.5-2.3,2.5-2.3c0.2-0.2,0.3-0.2,0.5-0.2c0.3,0.1,0.3,0.3,0.3,0.5
			c0.1,1,1.1,8.4,1.2,9.4c-1.5-0.9-1.8-3.7-2.2-5.8c-0.1-0.5-0.6-0.5-0.5,0.1l0.2,2.4c-0.3-0.1-1.4-0.5-1.8-0.7c-0.1,0-0.1,0-0.2,0
			c-0.3,0-0.4,0.3-0.4,0.4C33.3,17.1,34.2,20.4,34.6,21.8z"/>
		<path class="st3" d="M16.4,43.3c-0.3,0.1-0.9,0.1-1.1,0.1c-0.1,0-0.1,0-0.2,0l0,0l-0.6-2.9c-0.1-0.5-0.5-0.5-0.5,0.1l0.3,3
			c-0.1,0.2-0.5,0.9-0.9,0.9c-0.4,0-0.9-0.7-0.9-0.9l0.3-3c0.1-0.6-0.4-0.6-0.5-0.1l-0.6,2.9l0,0c-0.1,0-0.1,0-0.2,0
			c-0.3,0-0.9,0-1.1-0.1c0.4-1.5,1.2-4.7,1.5-5.7c0-0.2-0.1-0.4-0.4-0.4c0,0-0.1,0-0.2,0c-0.4,0.1-1.4,0.5-1.8,0.7l0.2-2.4
			c0.1-0.6-0.4-0.6-0.5-0.1c-0.5,2.1-0.7,4.9-2.2,5.8c0.1-1,1.1-8.4,1.2-9.4c0-0.2,0-0.4,0.3-0.5c0.2-0.1,0.4,0,0.5,0.2
			c0,0,2.5,2.3,2.5,2.3c0.1,0.1,0.3,0.2,0.4,0.1c0.1,0,0.3-0.2,0.3-0.3l0.3-2.8c0-0.1,0-0.2-0.1-0.3c-0.1-0.1-0.2-0.1-0.3-0.1
			c0,0-0.2,0-0.4,0l0.1-0.9c0.3-0.1,1-0.5,1.4-0.5c0,0,0,0,0,0c0,0,0.1,0,0.1,0c0.2,0,0.4,0.1,0.6,0.2c0.2,0.1,0.2,0.3,0.3,0.5
			l0.4,4c0,0.2,0.1,0.3,0.3,0.3c0.1,0,0.3,0,0.4-0.1c0,0,2.5-2.3,2.5-2.3c0.2-0.2,0.3-0.2,0.5-0.2c0.3,0.1,0.3,0.3,0.3,0.5
			c0.1,1,1.1,8.4,1.2,9.4c-1.5-0.9-1.8-3.7-2.2-5.8c-0.1-0.5-0.6-0.5-0.5,0.1l0.2,2.4c-0.3-0.1-1.4-0.5-1.8-0.7c-0.1,0-0.1,0-0.2,0
			c-0.3,0-0.4,0.3-0.4,0.4C15.2,38.6,16,41.8,16.4,43.3z"/>
		<path class="st3" d="M34.6,43.3c-0.3,0.1-0.9,0.1-1.1,0.1c-0.1,0-0.1,0-0.2,0l0,0l-0.6-2.9c-0.1-0.5-0.5-0.5-0.5,0.1l0.3,3
			c-0.1,0.2-0.5,0.9-0.9,0.9c-0.4,0-0.9-0.7-0.9-0.9l0.3-3c0.1-0.6-0.4-0.6-0.5-0.1l-0.6,2.9l0,0c-0.1,0-0.1,0-0.2,0
			c-0.3,0-0.9,0-1.1-0.1c0.4-1.5,1.2-4.7,1.5-5.7c0-0.2-0.1-0.4-0.4-0.4c0,0-0.1,0-0.2,0c-0.4,0.1-1.4,0.5-1.8,0.7l0.2-2.4
			c0-0.6-0.4-0.6-0.5-0.1c-0.5,2.1-0.7,4.9-2.2,5.8c0.1-1,1.1-8.4,1.2-9.4c0-0.2,0-0.4,0.3-0.5c0.2-0.1,0.4,0,0.5,0.2
			c0,0,2.5,2.3,2.5,2.3c0.1,0.1,0.3,0.2,0.4,0.1c0.1,0,0.3-0.2,0.3-0.3l0.3-2.8c0-0.1,0-0.2-0.1-0.3c-0.1-0.1-0.2-0.1-0.3-0.1
			c0,0-0.2,0-0.4,0l0.1-0.9c0.3-0.1,1-0.5,1.4-0.5c0,0,0,0,0,0c0,0,0.1,0,0.1,0c0.2,0,0.4,0.1,0.6,0.2c0.2,0.1,0.2,0.3,0.3,0.5
			l0.4,4c0,0.2,0.1,0.3,0.3,0.3c0.1,0,0.3,0,0.4-0.1c0,0,2.5-2.3,2.5-2.3c0.2-0.2,0.3-0.2,0.5-0.2c0.3,0.1,0.3,0.3,0.3,0.5
			c0.1,1,1.1,8.4,1.2,9.4c-1.5-0.9-1.8-3.7-2.2-5.8c-0.1-0.5-0.6-0.5-0.5,0.1l0.2,2.4c-0.3-0.1-1.4-0.5-1.8-0.7c-0.1,0-0.1,0-0.2,0
			c-0.3,0-0.4,0.3-0.4,0.4C33.3,38.6,34.2,41.8,34.6,43.3z"/>
		<path class="st3" d="M74.2,21.8C74,21.9,73.4,22,73.1,22c-0.1,0-0.1,0-0.2,0l0,0L72.3,19c-0.1-0.5-0.5-0.5-0.5,0.1l0.3,3
			c-0.1,0.2-0.5,0.9-0.9,0.9c-0.4,0-0.9-0.7-0.9-0.9l0.3-3c0.1-0.6-0.4-0.6-0.5-0.1l-0.6,2.9l0,0c-0.1,0-0.1,0-0.2,0
			c-0.3,0-0.9,0-1.1-0.1c0.4-1.5,1.2-4.7,1.5-5.7c0-0.2-0.1-0.4-0.4-0.4c0,0-0.1,0-0.2,0c-0.4,0.1-1.4,0.5-1.8,0.7l0.2-2.4
			c0-0.6-0.4-0.6-0.5-0.1c-0.5,2.1-0.7,4.9-2.2,5.8c0.1-1,1.1-8.4,1.2-9.4c0-0.2,0-0.4,0.3-0.5c0.2-0.1,0.4,0,0.5,0.2
			c0,0,2.5,2.3,2.5,2.3c0.1,0.1,0.3,0.2,0.4,0.1c0.1,0,0.3-0.2,0.3-0.3l0.3-2.8c0-0.1,0-0.2-0.1-0.3c-0.1-0.1-0.2-0.1-0.3-0.1
			c0,0-0.2,0-0.4,0L69.6,8c0.3-0.1,1-0.5,1.4-0.5c0,0,0,0,0,0c0,0,0.1,0,0.1,0c0.2,0,0.4,0.1,0.6,0.2c0.2,0.1,0.2,0.3,0.3,0.5l0.4,4
			c0,0.2,0.1,0.3,0.3,0.3c0.2,0,0.3,0,0.4-0.1c0,0,2.5-2.3,2.5-2.3c0.2-0.2,0.3-0.2,0.5-0.2c0.3,0.1,0.3,0.3,0.3,0.5
			c0.1,1,1.1,8.4,1.2,9.4c-1.5-0.9-1.8-3.7-2.2-5.8c-0.1-0.5-0.6-0.5-0.5,0.1l0.2,2.4c-0.3-0.1-1.4-0.5-1.8-0.7c-0.1,0-0.1,0-0.2,0
			c-0.3,0-0.4,0.3-0.4,0.4C73,17.1,73.9,20.4,74.2,21.8z"/>
		<path class="st3" d="M92.4,21.8c-0.3,0.1-0.9,0.1-1.1,0.1c-0.1,0-0.1,0-0.2,0l0,0L90.4,19c-0.1-0.5-0.5-0.5-0.5,0.1l0.3,3
			c-0.1,0.2-0.5,0.9-0.9,0.9c-0.4,0-0.9-0.7-0.9-0.9l0.3-3c0.1-0.6-0.4-0.6-0.5-0.1l-0.6,2.9l0,0c-0.1,0-0.1,0-0.2,0
			c-0.3,0-0.9,0-1.1-0.1c0.4-1.5,1.2-4.7,1.5-5.7c0-0.2-0.1-0.4-0.4-0.4c0,0-0.1,0-0.2,0c-0.4,0.1-1.4,0.5-1.8,0.7l0.2-2.4
			c0.1-0.6-0.4-0.6-0.5-0.1c-0.5,2.1-0.7,4.9-2.2,5.8c0.1-1,1.1-8.4,1.2-9.4c0-0.2,0-0.4,0.3-0.5c0.2-0.1,0.4,0,0.5,0.2
			c0,0,2.5,2.3,2.5,2.3c0.1,0.1,0.3,0.2,0.4,0.1c0.1,0,0.3-0.2,0.3-0.3l0.3-2.8c0-0.1,0-0.2-0.1-0.3c-0.1-0.1-0.2-0.1-0.3-0.1
			c0,0-0.2,0-0.4,0L87.8,8c0.3-0.1,1-0.5,1.4-0.5c0,0,0,0,0,0c0,0,0.1,0,0.1,0c0.2,0,0.4,0.1,0.6,0.2c0.2,0.1,0.2,0.3,0.3,0.5l0.4,4
			c0,0.2,0.1,0.3,0.3,0.3c0.1,0,0.3,0,0.4-0.1c0,0,2.5-2.3,2.5-2.3c0.2-0.2,0.3-0.2,0.5-0.2c0.3,0.1,0.3,0.3,0.3,0.5
			c0.1,1,1.1,8.4,1.2,9.4c-1.5-0.9-1.8-3.7-2.2-5.8C93.5,13.4,93,13.4,93,14l0.2,2.4c-0.3-0.1-1.4-0.5-1.8-0.7c-0.1,0-0.1,0-0.2,0
			c-0.3,0-0.4,0.3-0.4,0.4C91.2,17.1,92.1,20.4,92.4,21.8z"/>
		<path class="st3" d="M74.2,43.3c-0.3,0.1-0.9,0.1-1.1,0.1c-0.1,0-0.1,0-0.2,0l0,0l-0.6-2.9c-0.1-0.5-0.5-0.5-0.5,0.1l0.3,3
			c-0.1,0.2-0.5,0.9-0.9,0.9c-0.4,0-0.9-0.7-0.9-0.9l0.3-3c0.1-0.6-0.4-0.6-0.5-0.1l-0.6,2.9l0,0c-0.1,0-0.1,0-0.2,0
			c-0.3,0-0.9,0-1.1-0.1c0.4-1.5,1.2-4.7,1.5-5.7c0-0.2-0.1-0.4-0.4-0.4c0,0-0.1,0-0.2,0c-0.4,0.1-1.4,0.5-1.8,0.7l0.2-2.4
			c0-0.6-0.4-0.6-0.5-0.1c-0.5,2.1-0.7,4.9-2.2,5.8c0.1-1,1.1-8.4,1.2-9.4c0-0.2,0-0.4,0.3-0.5c0.2-0.1,0.4,0,0.5,0.2
			c0,0,2.5,2.3,2.5,2.3c0.1,0.1,0.3,0.2,0.4,0.1c0.1,0,0.3-0.2,0.3-0.3l0.3-2.8c0-0.1,0-0.2-0.1-0.3c-0.1-0.1-0.2-0.1-0.3-0.1
			c0,0-0.2,0-0.4,0l0.1-0.9c0.3-0.1,1-0.5,1.4-0.5c0,0,0,0,0,0c0,0,0.1,0,0.1,0c0.2,0,0.4,0.1,0.6,0.2c0.2,0.1,0.2,0.3,0.3,0.5
			l0.4,4c0,0.2,0.1,0.3,0.3,0.3c0.2,0,0.3,0,0.4-0.1c0,0,2.5-2.3,2.5-2.3c0.2-0.2,0.3-0.2,0.5-0.2c0.3,0.1,0.3,0.3,0.3,0.5
			c0.1,1,1.1,8.4,1.2,9.4c-1.5-0.9-1.8-3.7-2.2-5.8c-0.1-0.5-0.6-0.5-0.5,0.1l0.2,2.4c-0.3-0.1-1.4-0.5-1.8-0.7c-0.1,0-0.1,0-0.2,0
			c-0.3,0-0.4,0.3-0.4,0.4C73,38.6,73.9,41.8,74.2,43.3z"/>
		<path class="st3" d="M92.4,43.3c-0.3,0.1-0.9,0.1-1.1,0.1c-0.1,0-0.1,0-0.2,0l0,0l-0.6-2.9c-0.1-0.5-0.5-0.5-0.5,0.1l0.3,3
			c-0.1,0.2-0.5,0.9-0.9,0.9c-0.4,0-0.9-0.7-0.9-0.9l0.3-3c0.1-0.6-0.4-0.6-0.5-0.1l-0.6,2.9l0,0c-0.1,0-0.1,0-0.2,0
			c-0.3,0-0.9,0-1.1-0.1c0.4-1.5,1.2-4.7,1.5-5.7c0-0.2-0.1-0.4-0.4-0.4c0,0-0.1,0-0.2,0c-0.4,0.1-1.4,0.5-1.8,0.7l0.2-2.4
			c0.1-0.6-0.4-0.6-0.5-0.1c-0.5,2.1-0.7,4.9-2.2,5.8c0.1-1,1.1-8.4,1.2-9.4c0-0.2,0-0.4,0.3-0.5c0.2-0.1,0.4,0,0.5,0.2
			c0,0,2.5,2.3,2.5,2.3c0.1,0.1,0.3,0.2,0.4,0.1c0.1,0,0.3-0.2,0.3-0.3l0.3-2.8c0-0.1,0-0.2-0.1-0.3c-0.1-0.1-0.2-0.1-0.3-0.1
			c0,0-0.2,0-0.4,0l0.1-0.9c0.3-0.1,1-0.5,1.4-0.5c0,0,0,0,0,0c0,0,0.1,0,0.1,0c0.2,0,0.4,0.1,0.6,0.2c0.2,0.1,0.2,0.3,0.3,0.5
			l0.4,4c0,0.2,0.1,0.3,0.3,0.3c0.1,0,0.3,0,0.4-0.1c0,0,2.5-2.3,2.5-2.3c0.2-0.2,0.3-0.2,0.5-0.2c0.3,0.1,0.3,0.3,0.3,0.5
			c0.1,1,1.1,8.4,1.2,9.4c-1.5-0.9-1.8-3.7-2.2-5.8c-0.1-0.5-0.6-0.5-0.5,0.1l0.2,2.4c-0.3-0.1-1.4-0.5-1.8-0.7c-0.1,0-0.1,0-0.2,0
			c-0.3,0-0.4,0.3-0.4,0.4C91.2,38.6,92.1,41.8,92.4,43.3z"/>
		<path class="st3" d="M16.4,87c-0.3,0.1-0.9,0.1-1.1,0.1c-0.1,0-0.1,0-0.2,0l0,0l-0.6-2.9c-0.1-0.5-0.5-0.5-0.5,0.1l0.3,2.9
			c-0.1,0.2-0.5,0.9-0.9,0.9c-0.4,0-0.9-0.7-0.9-0.9l0.3-2.9c0.1-0.6-0.4-0.6-0.5-0.1L11.5,87l0,0c-0.1,0-0.1,0-0.2,0
			c-0.3,0-0.9,0-1.1-0.1c0.4-1.5,1.2-4.7,1.5-5.7c0-0.2-0.1-0.4-0.4-0.4c0,0-0.1,0-0.2,0c-0.4,0.1-1.4,0.5-1.8,0.7l0.2-2.4
			C9.6,78.5,9.1,78.5,9,79c-0.5,2.1-0.7,4.9-2.2,5.8c0.1-1,1.1-8.4,1.2-9.4c0-0.2,0-0.4,0.3-0.5c0.2-0.1,0.4,0,0.5,0.2
			c0,0,2.5,2.3,2.5,2.3c0.1,0.1,0.3,0.2,0.4,0.1c0.1,0,0.3-0.2,0.3-0.3l0.3-2.8c0-0.1,0-0.2-0.1-0.3C12.2,74.1,12.1,74,12,74
			c0,0-0.2,0-0.4,0l0.1-0.9c0.3-0.1,1-0.5,1.4-0.5c0,0,0,0,0,0c0,0,0.1,0,0.1,0c0.2,0,0.4,0.1,0.6,0.2c0.2,0.1,0.2,0.3,0.3,0.5
			l0.4,4c0,0.2,0.1,0.3,0.3,0.3c0.1,0,0.3,0,0.4-0.1c0,0,2.5-2.3,2.5-2.3c0.2-0.2,0.3-0.2,0.5-0.2c0.3,0.1,0.3,0.3,0.3,0.5
			c0.1,1,1.1,8.4,1.2,9.4c-1.5-0.9-1.8-3.7-2.2-5.8c-0.1-0.5-0.6-0.5-0.5,0.1l0.2,2.4c-0.3-0.1-1.4-0.5-1.8-0.7c-0.1,0-0.1,0-0.2,0
			c-0.3,0-0.4,0.3-0.4,0.4C15.2,82.3,16,85.5,16.4,87z"/>
		<path class="st3" d="M34.6,87c-0.3,0.1-0.9,0.1-1.1,0.1c-0.1,0-0.1,0-0.2,0l0,0l-0.6-2.9c-0.1-0.5-0.5-0.5-0.5,0.1l0.3,2.9
			c-0.1,0.2-0.5,0.9-0.9,0.9c-0.4,0-0.9-0.7-0.9-0.9l0.3-2.9c0.1-0.6-0.4-0.6-0.5-0.1L29.7,87l0,0c-0.1,0-0.1,0-0.2,0
			c-0.3,0-0.9,0-1.1-0.1c0.4-1.5,1.2-4.7,1.5-5.7c0-0.2-0.1-0.4-0.4-0.4c0,0-0.1,0-0.2,0c-0.4,0.1-1.4,0.5-1.8,0.7l0.2-2.4
			c0-0.6-0.4-0.6-0.5-0.1c-0.5,2.1-0.7,4.9-2.2,5.8c0.1-1,1.1-8.4,1.2-9.4c0-0.2,0-0.4,0.3-0.5c0.2-0.1,0.4,0,0.5,0.2
			c0,0,2.5,2.3,2.5,2.3c0.1,0.1,0.3,0.2,0.4,0.1c0.1,0,0.3-0.2,0.3-0.3l0.3-2.8c0-0.1,0-0.2-0.1-0.3c-0.1-0.1-0.2-0.1-0.3-0.1
			c0,0-0.2,0-0.4,0l0.1-0.9c0.3-0.1,1-0.5,1.4-0.5c0,0,0,0,0,0c0,0,0.1,0,0.1,0c0.2,0,0.4,0.1,0.6,0.2c0.2,0.1,0.2,0.3,0.3,0.5
			l0.4,4c0,0.2,0.1,0.3,0.3,0.3c0.1,0,0.3,0,0.4-0.1c0,0,2.5-2.3,2.5-2.3c0.2-0.2,0.3-0.2,0.5-0.2c0.3,0.1,0.3,0.3,0.3,0.5
			c0.1,1,1.1,8.4,1.2,9.4c-1.5-0.9-1.8-3.7-2.2-5.8c-0.1-0.5-0.6-0.5-0.5,0.1l0.2,2.4c-0.3-0.1-1.4-0.5-1.8-0.7c-0.1,0-0.1,0-0.2,0
			c-0.3,0-0.4,0.3-0.4,0.4C33.3,82.3,34.2,85.5,34.6,87z"/>
		<path class="st3" d="M16.4,108.4c-0.3,0.1-0.9,0.1-1.1,0.1c-0.1,0-0.1,0-0.2,0l0,0l-0.6-2.9c-0.1-0.5-0.5-0.5-0.5,0.1l0.3,2.9
			c-0.1,0.2-0.5,0.9-0.9,0.9c-0.4,0-0.9-0.7-0.9-0.9l0.3-2.9c0.1-0.6-0.4-0.6-0.5-0.1l-0.6,2.9l0,0c-0.1,0-0.1,0-0.2,0
			c-0.3,0-0.9,0-1.1-0.1c0.4-1.5,1.2-4.7,1.5-5.7c0-0.2-0.1-0.4-0.4-0.4c0,0-0.1,0-0.2,0c-0.4,0.1-1.4,0.5-1.8,0.7l0.2-2.4
			c0.1-0.6-0.4-0.6-0.5-0.1c-0.5,2.1-0.7,4.9-2.2,5.8c0.1-1,1.1-8.4,1.2-9.4c0-0.2,0-0.4,0.3-0.5c0.2-0.1,0.4,0,0.5,0.2
			c0,0,2.5,2.3,2.5,2.3c0.1,0.1,0.3,0.2,0.4,0.1c0.1,0,0.3-0.2,0.3-0.3l0.3-2.8c0-0.1,0-0.2-0.1-0.3c-0.1-0.1-0.2-0.1-0.3-0.1
			c0,0-0.2,0-0.4,0l0.1-0.9c0.3-0.1,1-0.5,1.4-0.5c0,0,0,0,0,0c0,0,0.1,0,0.1,0c0.2,0,0.4,0.1,0.6,0.2c0.2,0.1,0.2,0.3,0.3,0.5
			l0.4,4c0,0.2,0.1,0.3,0.3,0.3c0.1,0,0.3,0,0.4-0.1c0,0,2.5-2.3,2.5-2.3c0.2-0.2,0.3-0.2,0.5-0.2c0.3,0.1,0.3,0.3,0.3,0.5
			c0.1,1,1.1,8.4,1.2,9.4c-1.5-0.9-1.8-3.7-2.2-5.8c-0.1-0.5-0.6-0.5-0.5,0.1l0.2,2.4c-0.3-0.1-1.4-0.5-1.8-0.7c-0.1,0-0.1,0-0.2,0
			c-0.3,0-0.4,0.3-0.4,0.4C15.2,103.7,16,106.9,16.4,108.4z"/>
		<path class="st3" d="M34.6,108.4c-0.3,0.1-0.9,0.1-1.1,0.1c-0.1,0-0.1,0-0.2,0l0,0l-0.6-2.9c-0.1-0.5-0.5-0.5-0.5,0.1l0.3,2.9
			c-0.1,0.2-0.5,0.9-0.9,0.9c-0.4,0-0.9-0.7-0.9-0.9l0.3-2.9c0.1-0.6-0.4-0.6-0.5-0.1l-0.6,2.9l0,0c-0.1,0-0.1,0-0.2,0
			c-0.3,0-0.9,0-1.1-0.1c0.4-1.5,1.2-4.7,1.5-5.7c0-0.2-0.1-0.4-0.4-0.4c0,0-0.1,0-0.2,0c-0.4,0.1-1.4,0.5-1.8,0.7l0.2-2.4
			c0-0.6-0.4-0.6-0.5-0.1c-0.5,2.1-0.7,4.9-2.2,5.8c0.1-1,1.1-8.4,1.2-9.4c0-0.2,0-0.4,0.3-0.5c0.2-0.1,0.4,0,0.5,0.2
			c0,0,2.5,2.3,2.5,2.3c0.1,0.1,0.3,0.2,0.4,0.1c0.1,0,0.3-0.2,0.3-0.3l0.3-2.8c0-0.1,0-0.2-0.1-0.3c-0.1-0.1-0.2-0.1-0.3-0.1
			c0,0-0.2,0-0.4,0l0.1-0.9c0.3-0.1,1-0.5,1.4-0.5c0,0,0,0,0,0c0,0,0.1,0,0.1,0c0.2,0,0.4,0.1,0.6,0.2c0.2,0.1,0.2,0.3,0.3,0.5
			l0.4,4c0,0.2,0.1,0.3,0.3,0.3c0.1,0,0.3,0,0.4-0.1c0,0,2.5-2.3,2.5-2.3c0.2-0.2,0.3-0.2,0.5-0.2c0.3,0.1,0.3,0.3,0.3,0.5
			c0.1,1,1.1,8.4,1.2,9.4c-1.5-0.9-1.8-3.7-2.2-5.8c-0.1-0.5-0.6-0.5-0.5,0.1l0.2,2.4c-0.3-0.1-1.4-0.5-1.8-0.7c-0.1,0-0.1,0-0.2,0
			c-0.3,0-0.4,0.3-0.4,0.4C33.3,103.7,34.2,106.9,34.6,108.4z"/>
		<path class="st3" d="M74.2,87c-0.3,0.1-0.9,0.1-1.1,0.1c-0.1,0-0.1,0-0.2,0l0,0l-0.6-2.9c-0.1-0.5-0.5-0.5-0.5,0.1l0.3,2.9
			c-0.1,0.2-0.5,0.9-0.9,0.9c-0.4,0-0.9-0.7-0.9-0.9l0.3-2.9c0.1-0.6-0.4-0.6-0.5-0.1L69.4,87l0,0c-0.1,0-0.1,0-0.2,0
			c-0.3,0-0.9,0-1.1-0.1c0.4-1.5,1.2-4.7,1.5-5.7c0-0.2-0.1-0.4-0.4-0.4c0,0-0.1,0-0.2,0c-0.4,0.1-1.4,0.5-1.8,0.7l0.2-2.4
			c0-0.6-0.4-0.6-0.5-0.1c-0.5,2.1-0.7,4.9-2.2,5.8c0.1-1,1.1-8.4,1.2-9.4c0-0.2,0-0.4,0.3-0.5c0.2-0.1,0.4,0,0.5,0.2
			c0,0,2.5,2.3,2.5,2.3c0.1,0.1,0.3,0.2,0.4,0.1c0.1,0,0.3-0.2,0.3-0.3l0.3-2.8c0-0.1,0-0.2-0.1-0.3C70.1,74.1,70,74,69.9,74
			c0,0-0.2,0-0.4,0l0.1-0.9c0.3-0.1,1-0.5,1.4-0.5c0,0,0,0,0,0c0,0,0.1,0,0.1,0c0.2,0,0.4,0.1,0.6,0.2c0.2,0.1,0.2,0.3,0.3,0.5
			l0.4,4c0,0.2,0.1,0.3,0.3,0.3c0.2,0,0.3,0,0.4-0.1c0,0,2.5-2.3,2.5-2.3c0.2-0.2,0.3-0.2,0.5-0.2c0.3,0.1,0.3,0.3,0.3,0.5
			c0.1,1,1.1,8.4,1.2,9.4c-1.5-0.9-1.8-3.7-2.2-5.8c-0.1-0.5-0.6-0.5-0.5,0.1l0.2,2.4c-0.3-0.1-1.4-0.5-1.8-0.7c-0.1,0-0.1,0-0.2,0
			c-0.3,0-0.4,0.3-0.4,0.4C73,82.3,73.9,85.5,74.2,87z"/>
		<path class="st3" d="M92.4,87c-0.3,0.1-0.9,0.1-1.1,0.1c-0.1,0-0.1,0-0.2,0l0,0l-0.6-2.9c-0.1-0.5-0.5-0.5-0.5,0.1l0.3,2.9
			c-0.1,0.2-0.5,0.9-0.9,0.9c-0.4,0-0.9-0.7-0.9-0.9l0.3-2.9c0.1-0.6-0.4-0.6-0.5-0.1L87.6,87l0,0c-0.1,0-0.1,0-0.2,0
			c-0.3,0-0.9,0-1.1-0.1c0.4-1.5,1.2-4.7,1.5-5.7c0-0.2-0.1-0.4-0.4-0.4c0,0-0.1,0-0.2,0c-0.4,0.1-1.4,0.5-1.8,0.7l0.2-2.4
			c0.1-0.6-0.4-0.6-0.5-0.1c-0.5,2.1-0.7,4.9-2.2,5.8c0.1-1,1.1-8.4,1.2-9.4c0-0.2,0-0.4,0.3-0.5c0.2-0.1,0.4,0,0.5,0.2
			c0,0,2.5,2.3,2.5,2.3c0.1,0.1,0.3,0.2,0.4,0.1c0.1,0,0.3-0.2,0.3-0.3l0.3-2.8c0-0.1,0-0.2-0.1-0.3C88.3,74.1,88.2,74,88,74
			c0,0-0.2,0-0.4,0l0.1-0.9c0.3-0.1,1-0.5,1.4-0.5c0,0,0,0,0,0c0,0,0.1,0,0.1,0c0.2,0,0.4,0.1,0.6,0.2c0.2,0.1,0.2,0.3,0.3,0.5
			l0.4,4c0,0.2,0.1,0.3,0.3,0.3c0.1,0,0.3,0,0.4-0.1c0,0,2.5-2.3,2.5-2.3c0.2-0.2,0.3-0.2,0.5-0.2c0.3,0.1,0.3,0.3,0.3,0.5
			c0.1,1,1.1,8.4,1.2,9.4c-1.5-0.9-1.8-3.7-2.2-5.8c-0.1-0.5-0.6-0.5-0.5,0.1l0.2,2.4c-0.3-0.1-1.4-0.5-1.8-0.7c-0.1,0-0.1,0-0.2,0
			c-0.3,0-0.4,0.3-0.4,0.4C91.2,82.3,92.1,85.5,92.4,87z"/>
		<path class="st3" d="M74.2,108.4c-0.3,0.1-0.9,0.1-1.1,0.1c-0.1,0-0.1,0-0.2,0l0,0l-0.6-2.9c-0.1-0.5-0.5-0.5-0.5,0.1l0.3,2.9
			c-0.1,0.2-0.5,0.9-0.9,0.9c-0.4,0-0.9-0.7-0.9-0.9l0.3-2.9c0.1-0.6-0.4-0.6-0.5-0.1l-0.6,2.9l0,0c-0.1,0-0.1,0-0.2,0
			c-0.3,0-0.9,0-1.1-0.1c0.4-1.5,1.2-4.7,1.5-5.7c0-0.2-0.1-0.4-0.4-0.4c0,0-0.1,0-0.2,0c-0.4,0.1-1.4,0.5-1.8,0.7l0.2-2.4
			c0-0.6-0.4-0.6-0.5-0.1c-0.5,2.1-0.7,4.9-2.2,5.8c0.1-1,1.1-8.4,1.2-9.4c0-0.2,0-0.4,0.3-0.5c0.2-0.1,0.4,0,0.5,0.2
			c0,0,2.5,2.3,2.5,2.3c0.1,0.1,0.3,0.2,0.4,0.1c0.1,0,0.3-0.2,0.3-0.3l0.3-2.8c0-0.1,0-0.2-0.1-0.3c-0.1-0.1-0.2-0.1-0.3-0.1
			c0,0-0.2,0-0.4,0l0.1-0.9c0.3-0.1,1-0.5,1.4-0.5c0,0,0,0,0,0c0,0,0.1,0,0.1,0c0.2,0,0.4,0.1,0.6,0.2c0.2,0.1,0.2,0.3,0.3,0.5
			l0.4,4c0,0.2,0.1,0.3,0.3,0.3c0.2,0,0.3,0,0.4-0.1c0,0,2.5-2.3,2.5-2.3c0.2-0.2,0.3-0.2,0.5-0.2c0.3,0.1,0.3,0.3,0.3,0.5
			c0.1,1,1.1,8.4,1.2,9.4c-1.5-0.9-1.8-3.7-2.2-5.8c-0.1-0.5-0.6-0.5-0.5,0.1l0.2,2.4c-0.3-0.1-1.4-0.5-1.8-0.7c-0.1,0-0.1,0-0.2,0
			c-0.3,0-0.4,0.3-0.4,0.4C73,103.7,73.9,106.9,74.2,108.4z"/>
		<path class="st3" d="M92.4,108.4c-0.3,0.1-0.9,0.1-1.1,0.1c-0.1,0-0.1,0-0.2,0l0,0l-0.6-2.9c-0.1-0.5-0.5-0.5-0.5,0.1l0.3,2.9
			c-0.1,0.2-0.5,0.9-0.9,0.9c-0.4,0-0.9-0.7-0.9-0.9l0.3-2.9c0.1-0.6-0.4-0.6-0.5-0.1l-0.6,2.9l0,0c-0.1,0-0.1,0-0.2,0
			c-0.3,0-0.9,0-1.1-0.1c0.4-1.5,1.2-4.7,1.5-5.7c0-0.2-0.1-0.4-0.4-0.4c0,0-0.1,0-0.2,0c-0.4,0.1-1.4,0.5-1.8,0.7l0.2-2.4
			c0.1-0.6-0.4-0.6-0.5-0.1c-0.5,2.1-0.7,4.9-2.2,5.8c0.1-1,1.1-8.4,1.2-9.4c0-0.2,0-0.4,0.3-0.5c0.2-0.1,0.4,0,0.5,0.2
			c0,0,2.5,2.3,2.5,2.3c0.1,0.1,0.3,0.2,0.4,0.1c0.1,0,0.3-0.2,0.3-0.3l0.3-2.8c0-0.1,0-0.2-0.1-0.3c-0.1-0.1-0.2-0.1-0.3-0.1
			c0,0-0.2,0-0.4,0l0.1-0.9c0.3-0.1,1-0.5,1.4-0.5c0,0,0,0,0,0c0,0,0.1,0,0.1,0c0.2,0,0.4,0.1,0.6,0.2c0.2,0.1,0.2,0.3,0.3,0.5
			l0.4,4c0,0.2,0.1,0.3,0.3,0.3c0.1,0,0.3,0,0.4-0.1c0,0,2.5-2.3,2.5-2.3c0.2-0.2,0.3-0.2,0.5-0.2c0.3,0.1,0.3,0.3,0.3,0.5
			c0.1,1,1.1,8.4,1.2,9.4c-1.5-0.9-1.8-3.7-2.2-5.8c-0.1-0.5-0.6-0.5-0.5,0.1l0.2,2.4c-0.3-0.1-1.4-0.5-1.8-0.7c-0.1,0-0.1,0-0.2,0
			c-0.3,0-0.4,0.3-0.4,0.4C91.2,103.7,92.1,106.9,92.4,108.4z"/>
	</g>
</g>
</svg>
