<?xml version="1.0" encoding="utf-8"?>
<!-- Generator: Adobe Illustrator 26.0.2, SVG Export Plug-In . SVG Version: 6.00 Build 0)  -->
<svg version="1.1" id="Calque_1" xmlns="http://www.w3.org/2000/svg" xmlns:xlink="http://www.w3.org/1999/xlink" x="0px" y="0px"
	 viewBox="0 0 315 129.8" style="enable-background:new 0 0 315 129.8;" xml:space="preserve">
<style type="text/css">
	.st0{fill:#EB212E;}
	.st1{fill:#FFC103;}
	.st2{fill:#0099FF;}
	.st3{fill:#D9D9D9;}
</style>
<g>
	<path d="M138.3,16.7h3.2v15.7c0,4.1-2.9,8.2-9.4,8.2c-5.9,0-9.4-3-9.4-8V16.7h3.6v15.4c0,4,2,5.9,6.2,5.9c4.1,0,6-3,6-5.9V16.7z"/>
	<path d="M151.6,16.7h-3.1v23.4h3V22.2l14,17.9h3.2V16.7h-3.1v18.1L151.6,16.7z"/>
	<path d="M179.9,16.7v23.4h-3.5V16.7H179.9z"/>
	<path d="M184.9,16.7h3.6l5.8,17.6l6.4-17.6h3l-8.9,23.4h-1.8L184.9,16.7z"/>
	<path d="M222.4,16.7v2.5H212v7.6h8.3v2.5H212v8.4h10.4v2.5h-14V16.7H222.4z"/>
	<path d="M238,29.1l0.4-0.1c1.8-0.5,4.4-3.3,4.4-6.4c0-2.8-2.6-5.9-8.3-5.9H228v23.4h3.6V18.9h2.5c3.8,0,5.1,2.2,5.1,4.1
		c0,2-1.6,4.7-5.2,4.7c0,0-0.6,0-0.9,0l7.9,12.4h4.2L238,29.1z"/>
	<path d="M259.7,34.6c0-2.2-2.1-3.5-4.5-4.9l-0.8-0.5c-2.7-1.6-5.5-3.7-5.5-7c0-3.4,3-6,7-6c3.4,0,5.4,0.8,6.2,1.2
		c-0.1,0.2-0.9,2.1-1,2.3c-0.8-0.4-2.4-1-4.6-1c-2.5,0-4.1,1.1-4.1,2.9c0,2.2,1.8,3.3,4.1,4.7l1,0.6c0,0,0.1,0.1,0.1,0.1
		c2.3,1.5,5.9,3.7,5.9,6.9c0,4-4.3,6.7-8.3,6.7c-3.8,0-6-1.1-6.9-1.5c0.1-0.2,0.9-2,1-2.2c0,0,0,0,0,0c1,0.5,3,1.3,6,1.3
		C257.7,38.1,259.7,36.5,259.7,34.6z"/>
	<path d="M272.9,16.7v23.4h-3.5V16.7H272.9z"/>
	<path d="M296.4,16.7v2.5h-7.7v21h-3.6v-21h-7.7v-2.5H296.4z"/>
	<g>
		<path d="M304.6,19.1v7.6h8.3v2.5h-8.3v8.4c0,0,10.2,0,10.4,0v2.5h-14V16.7h14v2.5H304.6z"/>
		<path d="M311.5,8.8l1.4,2.1l-6,3.3l-0.8-1.3L311.5,8.8z"/>
	</g>
</g>
<g>
	<path d="M226.9,49.4v0.2c5,1.9,2.3,8.3,0.1,13.8l-11,27.8l-16.1-41.8h-10.7v0.2c3.1,2.4,4.8,7.1,6.3,11.1l15.3,39.6h7.7L239,49.4
		L226.9,49.4L226.9,49.4z"/>
	<path d="M315,92.7c-3,1.4-6.2,2-9.9,2h-11V49.4h-11.9v0.2c3.7,1.3,3.6,7.1,3.6,10.7l0,39.7c-4-2-6-6.6-7.9-11l-16.8-39.7h-12.8v0.2
		c3.8,1.1,2.4,4.4,1.2,7.2l-13.5,32.3c-1.8,4.4-3.8,9-7.9,11v0.2h10.1l5.2-13.5h24.8l5.4,13.5H315V92.7z M245.8,81.2L255.9,56
		l10.3,25.2H245.8z"/>
	<path d="M193.7,89.1l-16.8-39.7h-12.8v0.2c3.8,1.1,2.4,4.4,1.2,7.2l0,0l0,0l-13.5,32.3c-0.7,1.6-1.4,3.2-2.1,4.7
		c-1.9,0.6-4,0.9-6.2,0.9h-11V49.4h-11.9v0.2c3.7,1.3,3.6,7.1,3.6,10.7l0,40h29.9l5.2-13.5h24.8h0l5.3,13.5h12.2v-0.2
		C197.4,98,195.6,93.5,193.7,89.1z M161.4,81.2L171.5,56l10.3,25.2H161.4z"/>
</g>
<path d="M0,0v101.4c0,8.7,6.7,15.6,15.3,15.6h24.1c3.2,0,7.4,2.2,9.5,8.3l1.2,3.4c0.3,0.7,0.7,1.1,1.2,1.1c0.5,0,0.9-0.4,1.2-1.1
	l1.2-3.4c2.1-6.1,6.3-8.3,9.5-8.3h24.1c8.6,0,15.3-6.8,15.3-15.6V0H0z"/>
<g>
	<rect x="2.4" y="2.4" class="st0" width="39.7" height="47"/>
	<path class="st0" d="M2.4,67.6v33.8c0,7.6,5.9,13.1,12.9,13.1c0,0,24.1,0,24.1,0c0.9,0,1.8,0.1,2.7,0.4V67.6H2.4z"/>
	<rect x="60.3" y="2.4" class="st0" width="39.7" height="47"/>
	<path class="st0" d="M60.3,114.9c0.9-0.3,1.9-0.4,2.7-0.4c0,0,24.1,0,24.1,0c7,0,12.9-5.5,12.9-13.1V67.6H60.3V114.9z"/>
</g>
<path class="st1" d="M60.3,49.4v-47H42.1v47H2.4v18.2h39.7v47.3c3.4,1,7.1,3.8,9.1,9.5c2-5.7,5.6-8.6,9.1-9.5V67.6H100V49.4H60.3z"
	/>
<g>
	<path d="M17.1,21.8c0.1,0.3-0.1,0.5-0.3,0.6c-0.4,0.2-1.6,0.3-2.1,0.1c0,0-0.6,1.1-1.5,1.1c-0.9,0-1.5-1.1-1.5-1.1
		c-0.5,0.1-1.7,0.1-2.1-0.1c-0.2-0.1-0.4-0.4-0.3-0.6c0.3-1,1.1-4.1,1.3-5.2L9,17.2c-0.3,1.2-1.1,3.2-2.6,3.3
		c-0.2,0-0.5-0.1-0.5-0.3c0.2-1.7,1.2-9.2,1.3-10C7.3,9.6,7.5,9.3,8,9.1c0.5-0.2,0.9,0,1.4,0.4c0.4,0.4,1.9,1.7,1.9,1.7
		s0.2-1.2,0.2-1.6c-0.2,0-0.4,0-0.4,0c-0.2,0-0.4-0.2-0.4-0.4l0.2-1.5c0-0.2,0.1-0.3,0.2-0.3c0,0,0.6-0.3,1.2-0.5
		c0.5-0.2,0.9-0.2,0.9-0.2c0.4,0,0.8,0.1,1,0.3c0.3,0.2,0.5,0.6,0.5,1l0.3,3.2c0,0,1.5-1.4,1.9-1.7c0.5-0.5,0.9-0.6,1.4-0.4
		c0.5,0.2,0.7,0.5,0.8,1.2c0.1,0.7,1.1,8.3,1.3,10c0,0.2-0.3,0.3-0.5,0.3c-1.5-0.1-2.3-2.1-2.6-3.3l-1.6-0.6
		C16,17.7,16.8,20.9,17.1,21.8z"/>
	<path d="M35.3,21.8c0.1,0.3-0.1,0.5-0.3,0.6c-0.4,0.2-1.6,0.3-2.1,0.1c0,0-0.6,1.1-1.5,1.1c-0.9,0-1.5-1.1-1.5-1.1
		c-0.5,0.1-1.7,0.1-2.1-0.1c-0.2-0.1-0.4-0.4-0.3-0.6c0.3-1,1.1-4.1,1.3-5.2l-1.6,0.6c-0.3,1.2-1.1,3.2-2.6,3.3
		c-0.2,0-0.5-0.1-0.5-0.3c0.2-1.7,1.2-9.2,1.3-10c0.1-0.7,0.3-1.1,0.8-1.2c0.5-0.2,0.9,0,1.4,0.4c0.4,0.4,1.9,1.7,1.9,1.7
		s0.2-1.2,0.2-1.6c-0.2,0-0.4,0-0.4,0c-0.2,0-0.4-0.2-0.4-0.4l0.2-1.5c0-0.2,0.1-0.3,0.2-0.3c0,0,0.6-0.3,1.2-0.5
		c0.5-0.2,0.9-0.2,0.9-0.2c0.4,0,0.8,0.1,1,0.3c0.3,0.2,0.5,0.6,0.5,1l0.3,3.2c0,0,1.5-1.4,1.9-1.7c0.5-0.5,0.9-0.6,1.4-0.4
		c0.5,0.2,0.7,0.5,0.8,1.2c0.1,0.7,1.1,8.3,1.3,10c0,0.2-0.3,0.3-0.5,0.3c-1.5-0.1-2.3-2.1-2.6-3.3l-1.6-0.6
		C34.2,17.7,35,20.9,35.3,21.8z"/>
	<path d="M17.1,43.3c0.1,0.3-0.1,0.5-0.3,0.6c-0.4,0.2-1.6,0.3-2.1,0.1c0,0-0.6,1.1-1.5,1.1c-0.9,0-1.5-1.1-1.5-1.1
		c-0.5,0.2-1.7,0.1-2.1-0.1c-0.2-0.1-0.4-0.3-0.3-0.6c0.3-1,1.1-4.1,1.3-5.2L9,38.7c-0.3,1.2-1.1,3.2-2.6,3.3
		c-0.2,0-0.5-0.1-0.5-0.3c0.2-1.7,1.2-9.2,1.3-10c0.1-0.7,0.3-1.1,0.8-1.2c0.5-0.2,0.9,0,1.4,0.4c0.4,0.4,1.9,1.7,1.9,1.7
		s0.2-1.2,0.2-1.6c-0.2,0-0.4,0-0.4,0c-0.2,0-0.4-0.2-0.4-0.4l0.2-1.5c0-0.2,0.1-0.3,0.2-0.4c0,0,0.6-0.3,1.2-0.5
		c0.5-0.2,0.9-0.2,0.9-0.2c0.4,0,0.8,0.1,1,0.3c0.3,0.2,0.5,0.6,0.5,1l0.3,3.2c0,0,1.5-1.4,1.9-1.7c0.5-0.5,0.9-0.6,1.4-0.4
		c0.5,0.2,0.7,0.5,0.8,1.2c0.1,0.7,1.1,8.3,1.3,10c0,0.2-0.3,0.3-0.5,0.3c-1.5-0.1-2.3-2.1-2.6-3.3l-1.6-0.6
		C16,39.2,16.8,42.3,17.1,43.3z"/>
	<path d="M35.3,43.3c0.1,0.3-0.1,0.5-0.3,0.6c-0.4,0.2-1.6,0.3-2.1,0.1c0,0-0.6,1.1-1.5,1.1c-0.9,0-1.5-1.1-1.5-1.1
		c-0.5,0.2-1.7,0.1-2.1-0.1c-0.2-0.1-0.4-0.3-0.3-0.6c0.3-1,1.1-4.1,1.3-5.2l-1.6,0.6c-0.3,1.2-1.1,3.2-2.6,3.3
		c-0.2,0-0.5-0.1-0.5-0.3c0.2-1.7,1.2-9.2,1.3-10c0.1-0.7,0.3-1.1,0.8-1.2c0.5-0.2,0.9,0,1.4,0.4c0.4,0.4,1.9,1.7,1.9,1.7
		s0.2-1.2,0.2-1.6c-0.2,0-0.4,0-0.4,0c-0.2,0-0.4-0.2-0.4-0.4l0.2-1.5c0-0.2,0.1-0.3,0.2-0.4c0,0,0.6-0.3,1.2-0.5
		c0.5-0.2,0.9-0.2,0.9-0.2c0.4,0,0.8,0.1,1,0.3c0.3,0.2,0.5,0.6,0.5,1l0.3,3.2c0,0,1.5-1.4,1.9-1.7c0.5-0.5,0.9-0.6,1.4-0.4
		c0.5,0.2,0.7,0.5,0.8,1.2c0.1,0.7,1.1,8.3,1.3,10c0,0.2-0.3,0.3-0.5,0.3c-1.5-0.1-2.3-2.1-2.6-3.3l-1.6-0.6
		C34.2,39.2,35,42.3,35.3,43.3z"/>
	<path d="M75,21.8c0.1,0.3-0.1,0.5-0.3,0.6c-0.4,0.2-1.6,0.3-2.1,0.1c0,0-0.6,1.1-1.5,1.1s-1.5-1.1-1.5-1.1
		c-0.5,0.1-1.7,0.1-2.1-0.1c-0.2-0.1-0.4-0.4-0.3-0.6c0.3-1,1.1-4.1,1.3-5.2l-1.6,0.6c-0.3,1.2-1.1,3.2-2.6,3.3
		c-0.2,0-0.5-0.1-0.5-0.3c0.2-1.7,1.2-9.2,1.3-10c0.1-0.7,0.3-1.1,0.8-1.2c0.5-0.2,0.9,0,1.4,0.4c0.4,0.4,1.9,1.7,1.9,1.7
		s0.2-1.2,0.2-1.6c-0.2,0-0.4,0-0.4,0c-0.2,0-0.4-0.2-0.4-0.4l0.2-1.5c0-0.2,0.1-0.3,0.2-0.3c0,0,0.6-0.3,1.2-0.5
		c0.5-0.2,0.9-0.2,0.9-0.2c0.4,0,0.8,0.1,1,0.3c0.3,0.2,0.5,0.6,0.5,1l0.3,3.2c0,0,1.5-1.4,1.9-1.7c0.5-0.5,0.9-0.6,1.4-0.4
		c0.5,0.2,0.7,0.5,0.8,1.2c0.1,0.7,1.1,8.3,1.3,10c0,0.2-0.3,0.3-0.5,0.3c-1.5-0.1-2.3-2.1-2.6-3.3l-1.6-0.6
		C73.9,17.7,74.7,20.9,75,21.8z"/>
	<path d="M93.2,21.8c0.1,0.3-0.1,0.5-0.3,0.6c-0.4,0.2-1.6,0.3-2.1,0.1c0,0-0.6,1.1-1.5,1.1s-1.5-1.1-1.5-1.1
		c-0.5,0.1-1.7,0.1-2.1-0.1c-0.2-0.1-0.4-0.4-0.3-0.6c0.3-1,1.1-4.1,1.3-5.2l-1.6,0.6c-0.3,1.2-1.1,3.2-2.6,3.3
		c-0.2,0-0.5-0.1-0.5-0.3c0.2-1.7,1.2-9.2,1.3-10c0.1-0.7,0.3-1.1,0.8-1.2c0.5-0.2,0.9,0,1.4,0.4c0.4,0.4,1.9,1.7,1.9,1.7
		s0.2-1.2,0.2-1.6c-0.2,0-0.4,0-0.4,0c-0.2,0-0.4-0.2-0.4-0.4L87,7.8c0-0.2,0.1-0.3,0.2-0.3c0,0,0.6-0.3,1.2-0.5
		c0.5-0.2,0.9-0.2,0.9-0.2c0.4,0,0.8,0.1,1,0.3c0.3,0.2,0.5,0.6,0.5,1l0.3,3.2c0,0,1.5-1.4,1.9-1.7c0.5-0.5,0.9-0.6,1.4-0.4
		c0.5,0.2,0.7,0.5,0.8,1.2c0.1,0.7,1.1,8.3,1.3,10c0,0.2-0.3,0.3-0.5,0.3c-1.5-0.1-2.3-2.1-2.6-3.3l-1.6-0.6
		C92.1,17.7,92.9,20.9,93.2,21.8z"/>
	<path d="M75,43.3c0.1,0.3-0.1,0.5-0.3,0.6c-0.4,0.2-1.6,0.3-2.1,0.1c0,0-0.6,1.1-1.5,1.1s-1.5-1.1-1.5-1.1
		c-0.5,0.2-1.7,0.1-2.1-0.1c-0.2-0.1-0.4-0.3-0.3-0.6c0.3-1,1.1-4.1,1.3-5.2l-1.6,0.6c-0.3,1.2-1.1,3.2-2.6,3.3
		c-0.2,0-0.5-0.1-0.5-0.3c0.2-1.7,1.2-9.2,1.3-10c0.1-0.7,0.3-1.1,0.8-1.2c0.5-0.2,0.9,0,1.4,0.4c0.4,0.4,1.9,1.7,1.9,1.7
		s0.2-1.2,0.2-1.6c-0.2,0-0.4,0-0.4,0c-0.2,0-0.4-0.2-0.4-0.4l0.2-1.5c0-0.2,0.1-0.3,0.2-0.4c0,0,0.6-0.3,1.2-0.5
		c0.5-0.2,0.9-0.2,0.9-0.2c0.4,0,0.8,0.1,1,0.3c0.3,0.2,0.5,0.6,0.5,1l0.3,3.2c0,0,1.5-1.4,1.9-1.7c0.5-0.5,0.9-0.6,1.4-0.4
		c0.5,0.2,0.7,0.5,0.8,1.2c0.1,0.7,1.1,8.3,1.3,10c0,0.2-0.3,0.3-0.5,0.3c-1.5-0.1-2.3-2.1-2.6-3.3l-1.6-0.6
		C73.9,39.2,74.7,42.3,75,43.3z"/>
	<path d="M93.2,43.3c0.1,0.3-0.1,0.5-0.3,0.6c-0.4,0.2-1.6,0.3-2.1,0.1c0,0-0.6,1.1-1.5,1.1s-1.5-1.1-1.5-1.1
		c-0.5,0.2-1.7,0.1-2.1-0.1c-0.2-0.1-0.4-0.3-0.3-0.6c0.3-1,1.1-4.1,1.3-5.2l-1.6,0.6c-0.3,1.2-1.1,3.2-2.6,3.3
		c-0.2,0-0.5-0.1-0.5-0.3c0.2-1.7,1.2-9.2,1.3-10c0.1-0.7,0.3-1.1,0.8-1.2c0.5-0.2,0.9,0,1.4,0.4c0.4,0.4,1.9,1.7,1.9,1.7
		s0.2-1.2,0.2-1.6c-0.2,0-0.4,0-0.4,0c-0.2,0-0.4-0.2-0.4-0.4l0.2-1.5c0-0.2,0.1-0.3,0.2-0.4c0,0,0.6-0.3,1.2-0.5
		c0.5-0.2,0.9-0.2,0.9-0.2c0.4,0,0.8,0.1,1,0.3c0.3,0.2,0.5,0.6,0.5,1l0.3,3.2c0,0,1.5-1.4,1.9-1.7c0.5-0.5,0.9-0.6,1.4-0.4
		c0.5,0.2,0.7,0.5,0.8,1.2c0.1,0.7,1.1,8.3,1.3,10c0,0.2-0.3,0.3-0.5,0.3c-1.5-0.1-2.3-2.1-2.6-3.3l-1.6-0.6
		C92.1,39.2,92.9,42.3,93.2,43.3z"/>
	<path d="M17.1,87c0.1,0.3-0.1,0.5-0.3,0.6c-0.4,0.2-1.6,0.3-2.1,0.1c0,0-0.6,1.1-1.5,1.1c-0.9,0-1.5-1.1-1.5-1.1
		c-0.5,0.2-1.7,0.1-2.1-0.1c-0.2-0.1-0.4-0.4-0.3-0.6c0.3-1,1.1-4.1,1.3-5.2L9,82.4c-0.3,1.2-1.1,3.2-2.6,3.3
		c-0.2,0-0.5-0.1-0.5-0.3c0.2-1.7,1.2-9.2,1.3-10c0.1-0.7,0.3-1.1,0.8-1.2c0.5-0.2,0.9,0,1.4,0.4c0.4,0.4,1.9,1.7,1.9,1.7
		s0.2-1.2,0.2-1.6c-0.2,0-0.4,0-0.4,0c-0.2,0-0.4-0.2-0.4-0.4l0.2-1.5c0-0.2,0.1-0.3,0.2-0.3c0,0,0.6-0.3,1.2-0.5
		c0.5-0.2,0.9-0.2,0.9-0.2c0.4,0,0.8,0.1,1,0.3c0.3,0.2,0.5,0.6,0.5,1l0.3,3.2c0,0,1.5-1.4,1.9-1.7c0.5-0.5,0.9-0.6,1.4-0.4
		c0.5,0.2,0.7,0.5,0.8,1.2c0.1,0.7,1.1,8.3,1.3,10c0,0.2-0.3,0.3-0.5,0.3c-1.5-0.1-2.3-2.1-2.6-3.3l-1.6-0.6
		C16,82.9,16.8,86,17.1,87z"/>
	<path d="M35.3,87c0.1,0.3-0.1,0.5-0.3,0.6c-0.4,0.2-1.6,0.3-2.1,0.1c0,0-0.6,1.1-1.5,1.1c-0.9,0-1.5-1.1-1.5-1.1
		c-0.5,0.2-1.7,0.1-2.1-0.1c-0.2-0.1-0.4-0.4-0.3-0.6c0.3-1,1.1-4.1,1.3-5.2l-1.6,0.6c-0.3,1.2-1.1,3.2-2.6,3.3
		c-0.2,0-0.5-0.1-0.5-0.3c0.2-1.7,1.2-9.2,1.3-10c0.1-0.7,0.3-1.1,0.8-1.2c0.5-0.2,0.9,0,1.4,0.4c0.4,0.4,1.9,1.7,1.9,1.7
		s0.2-1.2,0.2-1.6c-0.2,0-0.4,0-0.4,0c-0.2,0-0.4-0.2-0.4-0.4l0.2-1.5c0-0.2,0.1-0.3,0.2-0.3c0,0,0.6-0.3,1.2-0.5
		c0.5-0.2,0.9-0.2,0.9-0.2c0.4,0,0.8,0.1,1,0.3c0.3,0.2,0.5,0.6,0.5,1l0.3,3.2c0,0,1.5-1.4,1.9-1.7c0.5-0.5,0.9-0.6,1.4-0.4
		c0.5,0.2,0.7,0.5,0.8,1.2c0.1,0.7,1.1,8.3,1.3,10c0,0.2-0.3,0.3-0.5,0.3c-1.5-0.1-2.3-2.1-2.6-3.3l-1.6-0.6
		C34.2,82.9,35,86,35.3,87z"/>
	<path d="M17.1,108.4c0.1,0.3-0.1,0.5-0.3,0.6c-0.4,0.2-1.6,0.3-2.1,0.1c0,0-0.6,1.1-1.5,1.1c-0.9,0-1.5-1.1-1.5-1.1
		c-0.5,0.2-1.7,0.1-2.1-0.1c-0.2-0.1-0.4-0.3-0.3-0.6c0.3-1,1.1-4.1,1.3-5.2L9,103.8c-0.3,1.2-1.1,3.2-2.6,3.3
		c-0.2,0-0.5-0.1-0.5-0.3c0.2-1.7,1.2-9.2,1.3-10c0.1-0.7,0.3-1.1,0.8-1.2c0.5-0.2,0.9,0,1.4,0.4c0.4,0.4,1.9,1.7,1.9,1.7
		s0.2-1.2,0.2-1.6c-0.2,0-0.4,0-0.4,0c-0.2,0-0.4-0.2-0.4-0.4l0.2-1.5c0-0.2,0.1-0.3,0.2-0.3c0,0,0.6-0.3,1.2-0.5
		c0.5-0.2,0.9-0.2,0.9-0.2c0.4,0,0.8,0.1,1,0.3c0.3,0.2,0.5,0.6,0.5,1l0.3,3.2c0,0,1.5-1.4,1.9-1.7c0.5-0.5,0.9-0.6,1.4-0.4
		c0.5,0.2,0.7,0.5,0.8,1.2c0.1,0.7,1.1,8.3,1.3,10c0,0.2-0.3,0.3-0.5,0.3c-1.5-0.1-2.3-2.1-2.6-3.3l-1.6-0.6
		C16,104.3,16.8,107.4,17.1,108.4z"/>
	<path d="M35.3,108.4c0.1,0.3-0.1,0.5-0.3,0.6c-0.4,0.2-1.6,0.3-2.1,0.1c0,0-0.6,1.1-1.5,1.1c-0.9,0-1.5-1.1-1.5-1.1
		c-0.5,0.2-1.7,0.1-2.1-0.1c-0.2-0.1-0.4-0.3-0.3-0.6c0.3-1,1.1-4.1,1.3-5.2l-1.6,0.6c-0.3,1.2-1.1,3.2-2.6,3.3
		c-0.2,0-0.5-0.1-0.5-0.3c0.2-1.7,1.2-9.2,1.3-10c0.1-0.7,0.3-1.1,0.8-1.2c0.5-0.2,0.9,0,1.4,0.4c0.4,0.4,1.9,1.7,1.9,1.7
		s0.2-1.2,0.2-1.6c-0.2,0-0.4,0-0.4,0c-0.2,0-0.4-0.2-0.4-0.4l0.2-1.5c0-0.2,0.1-0.3,0.2-0.3c0,0,0.6-0.3,1.2-0.5
		c0.5-0.2,0.9-0.2,0.9-0.2c0.4,0,0.8,0.1,1,0.3c0.3,0.2,0.5,0.6,0.5,1l0.3,3.2c0,0,1.5-1.4,1.9-1.7c0.5-0.5,0.9-0.6,1.4-0.4
		c0.5,0.2,0.7,0.5,0.8,1.2c0.1,0.7,1.1,8.3,1.3,10c0,0.2-0.3,0.3-0.5,0.3c-1.5-0.1-2.3-2.1-2.6-3.3l-1.6-0.6
		C34.2,104.3,35,107.4,35.3,108.4z"/>
	<path d="M75,87c0.1,0.3-0.1,0.5-0.3,0.6c-0.4,0.2-1.6,0.3-2.1,0.1c0,0-0.6,1.1-1.5,1.1s-1.5-1.1-1.5-1.1c-0.5,0.2-1.7,0.1-2.1-0.1
		c-0.2-0.1-0.4-0.4-0.3-0.6c0.3-1,1.1-4.1,1.3-5.2l-1.6,0.6c-0.3,1.2-1.1,3.2-2.6,3.3c-0.2,0-0.5-0.1-0.5-0.3
		c0.2-1.7,1.2-9.2,1.3-10c0.1-0.7,0.3-1.1,0.8-1.2c0.5-0.2,0.9,0,1.4,0.4c0.4,0.4,1.9,1.7,1.9,1.7s0.2-1.2,0.2-1.6
		c-0.2,0-0.4,0-0.4,0c-0.2,0-0.4-0.2-0.4-0.4l0.2-1.5c0-0.2,0.1-0.3,0.2-0.3c0,0,0.6-0.3,1.2-0.5c0.5-0.2,0.9-0.2,0.9-0.2
		c0.4,0,0.8,0.1,1,0.3c0.3,0.2,0.5,0.6,0.5,1l0.3,3.2c0,0,1.5-1.4,1.9-1.7c0.5-0.5,0.9-0.6,1.4-0.4c0.5,0.2,0.7,0.5,0.8,1.2
		c0.1,0.7,1.1,8.3,1.3,10c0,0.2-0.3,0.3-0.5,0.3c-1.5-0.1-2.3-2.1-2.6-3.3l-1.6-0.6C73.9,82.9,74.7,86,75,87z"/>
	<path d="M93.2,87c0.1,0.3-0.1,0.5-0.3,0.6c-0.4,0.2-1.6,0.3-2.1,0.1c0,0-0.6,1.1-1.5,1.1s-1.5-1.1-1.5-1.1
		c-0.5,0.2-1.7,0.1-2.1-0.1c-0.2-0.1-0.4-0.4-0.3-0.6c0.3-1,1.1-4.1,1.3-5.2l-1.6,0.6c-0.3,1.2-1.1,3.2-2.6,3.3
		c-0.2,0-0.5-0.1-0.5-0.3c0.2-1.7,1.2-9.2,1.3-10c0.1-0.7,0.3-1.1,0.8-1.2c0.5-0.2,0.9,0,1.4,0.4c0.4,0.4,1.9,1.7,1.9,1.7
		s0.2-1.2,0.2-1.6c-0.2,0-0.4,0-0.4,0c-0.2,0-0.4-0.2-0.4-0.4l0.2-1.5c0-0.2,0.1-0.3,0.2-0.3c0,0,0.6-0.3,1.2-0.5
		c0.5-0.2,0.9-0.2,0.9-0.2c0.4,0,0.8,0.1,1,0.3c0.3,0.2,0.5,0.6,0.5,1l0.3,3.2c0,0,1.5-1.4,1.9-1.7c0.5-0.5,0.9-0.6,1.4-0.4
		c0.5,0.2,0.7,0.5,0.8,1.2c0.1,0.7,1.1,8.3,1.3,10c0,0.2-0.3,0.3-0.5,0.3c-1.5-0.1-2.3-2.1-2.6-3.3l-1.6-0.6
		C92.1,82.9,92.9,86,93.2,87z"/>
	<path d="M75,108.4c0.1,0.3-0.1,0.5-0.3,0.6c-0.4,0.2-1.6,0.3-2.1,0.1c0,0-0.6,1.1-1.5,1.1s-1.5-1.1-1.5-1.1
		c-0.5,0.2-1.7,0.1-2.1-0.1c-0.2-0.1-0.4-0.3-0.3-0.6c0.3-1,1.1-4.1,1.3-5.2l-1.6,0.6c-0.3,1.2-1.1,3.2-2.6,3.3
		c-0.2,0-0.5-0.1-0.5-0.3c0.2-1.7,1.2-9.2,1.3-10c0.1-0.7,0.3-1.1,0.8-1.2c0.5-0.2,0.9,0,1.4,0.4c0.4,0.4,1.9,1.7,1.9,1.7
		s0.2-1.2,0.2-1.6c-0.2,0-0.4,0-0.4,0c-0.2,0-0.4-0.2-0.4-0.4l0.2-1.5c0-0.2,0.1-0.3,0.2-0.3c0,0,0.6-0.3,1.2-0.5
		c0.5-0.2,0.9-0.2,0.9-0.2c0.4,0,0.8,0.1,1,0.3c0.3,0.2,0.5,0.6,0.5,1l0.3,3.2c0,0,1.5-1.4,1.9-1.7c0.5-0.5,0.9-0.6,1.4-0.4
		c0.5,0.2,0.7,0.5,0.8,1.2c0.1,0.7,1.1,8.3,1.3,10c0,0.2-0.3,0.3-0.5,0.3c-1.5-0.1-2.3-2.1-2.6-3.3l-1.6-0.6
		C73.9,104.3,74.7,107.4,75,108.4z"/>
	<path d="M93.2,108.4c0.1,0.3-0.1,0.5-0.3,0.6c-0.4,0.2-1.6,0.3-2.1,0.1c0,0-0.6,1.1-1.5,1.1s-1.5-1.1-1.5-1.1
		c-0.5,0.2-1.7,0.1-2.1-0.1c-0.2-0.1-0.4-0.3-0.3-0.6c0.3-1,1.1-4.1,1.3-5.2l-1.6,0.6c-0.3,1.2-1.1,3.2-2.6,3.3
		c-0.2,0-0.5-0.1-0.5-0.3c0.2-1.7,1.2-9.2,1.3-10c0.1-0.7,0.3-1.1,0.8-1.2c0.5-0.2,0.9,0,1.4,0.4c0.4,0.4,1.9,1.7,1.9,1.7
		s0.2-1.2,0.2-1.6c-0.2,0-0.4,0-0.4,0c-0.2,0-0.4-0.2-0.4-0.4l0.2-1.5c0-0.2,0.1-0.3,0.2-0.3c0,0,0.6-0.3,1.2-0.5
		c0.5-0.2,0.9-0.2,0.9-0.2c0.4,0,0.8,0.1,1,0.3c0.3,0.2,0.5,0.6,0.5,1l0.3,3.2c0,0,1.5-1.4,1.9-1.7c0.5-0.5,0.9-0.6,1.4-0.4
		c0.5,0.2,0.7,0.5,0.8,1.2c0.1,0.7,1.1,8.3,1.3,10c0,0.2-0.3,0.3-0.5,0.3c-1.5-0.1-2.3-2.1-2.6-3.3l-1.6-0.6
		C92.1,104.3,92.9,107.4,93.2,108.4z"/>
</g>
<g>
	<path d="M51.2,32.6c0.8,0,1.5-0.4,1.9-1c0.3,0.2,0.7,0.2,1,0.2c1.1,0,2.1-0.9,2.2-2c1.2,0,2.2-1,2.2-2.2c0-0.5-0.2-1-0.5-1.4
		c-0.5-0.6-2.5-3-2.5-3c0-0.1,0-1.2,0-1.2c0-0.6-0.5-1.1-1.1-1.1c0,0-1,0-1.1,0c-0.1-0.1-1-1-1-1c-0.3-0.3-0.6-0.4-1-0.4
		c-0.4,0-0.8,0.2-1,0.4c0,0-0.9,0.9-1,1c-0.1,0-1.1,0-1.1,0c-0.6,0-1.1,0.5-1.1,1.1c0,0,0,1.1,0,1.2c0,0-2,2.4-2.5,3
		c-0.3,0.4-0.5,0.9-0.5,1.4c0,1.2,1,2.2,2.2,2.2c0.1,1.1,1,2,2.2,2c0.4,0,0.7-0.1,1-0.2C49.8,32.2,50.5,32.6,51.2,32.6z"/>
	<path d="M51.2,65.2c0.8,0,1.5-0.4,1.9-1c0.3,0.2,0.7,0.2,1,0.2c1.1,0,2.1-0.9,2.2-2c1.2,0,2.2-1,2.2-2.2c0-0.5-0.2-1-0.5-1.4
		c-0.5-0.6-2.5-3-2.5-3c0-0.1,0-1.2,0-1.2c0-0.6-0.5-1.1-1.1-1.1c0,0-1,0-1.1,0c-0.1-0.1-1-1-1-1c-0.3-0.3-0.6-0.4-1-0.4
		c-0.4,0-0.8,0.2-1,0.4c0,0-0.9,0.9-1,1c-0.1,0-1.1,0-1.1,0c-0.6,0-1.1,0.5-1.1,1.1c0,0,0,1.1,0,1.2c0,0-2,2.4-2.5,3
		c-0.3,0.4-0.5,0.9-0.5,1.4c0,1.2,1,2.2,2.2,2.2c0.1,1.1,1,2,2.2,2c0.4,0,0.7-0.1,1-0.2C49.8,64.8,50.5,65.2,51.2,65.2z"/>
	<path d="M22.3,65.2c0.8,0,1.5-0.4,1.9-1c0.3,0.2,0.7,0.2,1,0.2c1.1,0,2.1-0.9,2.2-2c1.2,0,2.2-1,2.2-2.2c0-0.5-0.2-1-0.5-1.4
		c-0.5-0.6-2.5-3-2.5-3c0-0.1,0-1.2,0-1.2c0-0.6-0.5-1.1-1.1-1.1c0,0-1,0-1.1,0c-0.1-0.1-1-1-1-1c-0.3-0.3-0.6-0.4-1-0.4
		s-0.8,0.2-1,0.4c0,0-0.9,0.9-1,1c-0.1,0-1.1,0-1.1,0c-0.6,0-1.1,0.5-1.1,1.1c0,0,0,1.1,0,1.2c0,0-2,2.4-2.5,3
		c-0.3,0.4-0.5,0.9-0.5,1.4c0,1.2,1,2.2,2.2,2.2c0.1,1.1,1.1,2,2.2,2c0.4,0,0.7-0.1,1-0.2C20.8,64.8,21.5,65.2,22.3,65.2z"/>
	<path d="M80.2,65.2c0.8,0,1.5-0.4,1.9-1c0.3,0.2,0.7,0.2,1,0.2c1.1,0,2.1-0.9,2.2-2c1.2,0,2.2-1,2.2-2.2c0-0.5-0.2-1-0.5-1.4
		c-0.5-0.6-2.5-3-2.5-3c0-0.1,0-1.2,0-1.2c0-0.6-0.5-1.1-1.1-1.1c0,0-1,0-1.1,0c-0.1-0.1-1-1-1-1c-0.3-0.3-0.6-0.4-1-0.4
		s-0.8,0.2-1,0.4c0,0-0.9,0.9-1,1c-0.1,0-1.1,0-1.1,0c-0.6,0-1.1,0.5-1.1,1.1c0,0,0,1.1,0,1.2c0,0-2,2.4-2.5,3
		c-0.3,0.4-0.5,0.9-0.5,1.4c0,1.2,1,2.2,2.2,2.2c0.1,1.1,1.1,2,2.2,2c0.4,0,0.7-0.1,1-0.2C78.7,64.8,79.4,65.2,80.2,65.2z"/>
	<path d="M51.2,97.7c0.8,0,1.5-0.4,1.9-1c0.3,0.2,0.7,0.2,1,0.2c1.1,0,2.1-0.9,2.2-2c1.2,0,2.2-1,2.2-2.2c0-0.5-0.2-1-0.5-1.4
		c-0.5-0.6-2.5-3-2.5-3c0-0.1,0-1.2,0-1.2c0-0.6-0.5-1.1-1.1-1.1c0,0-1,0-1.1,0c-0.1-0.1-1-1-1-1c-0.3-0.3-0.6-0.4-1-0.4
		c-0.4,0-0.8,0.2-1,0.4c0,0-0.9,0.9-1,1c-0.1,0-1.1,0-1.1,0c-0.6,0-1.1,0.5-1.1,1.1c0,0,0,1.1,0,1.2c0,0-2,2.4-2.5,3
		c-0.3,0.4-0.5,0.9-0.5,1.4c0,1.2,1,2.2,2.2,2.2c0.1,1.1,1,2,2.2,2c0.4,0,0.7-0.1,1-0.2C49.8,97.3,50.5,97.7,51.2,97.7z"/>
</g>
<g>
	<path class="st2" d="M51.2,31.9c0.5,0,1-0.3,1.2-0.7l-0.4-4c0-0.2,0.1-0.3,0.3-0.3c0.2,0,0.3,0.1,0.3,0.2l0.7,3.8
		c0.2,0.1,0.5,0.2,0.7,0.2c0.8,0,1.4-0.6,1.5-1.4L53.9,26c-0.1-0.1,0-0.3,0.2-0.4c0.1-0.1,0.3,0,0.4,0.1l1.8,3.4c0,0,0,0,0,0
		c0.8,0,1.5-0.7,1.5-1.5c0-0.3,0-0.6-0.2-0.8l-2.8-3.4V22c0-0.2-0.1-0.3-0.3-0.3c0,0-1.4,0-1.4,0l-1.2-1.2c-0.1-0.1-0.3-0.2-0.5-0.2
		s-0.4,0.1-0.5,0.2l-1.2,1.2c0,0-1.4,0-1.4,0c-0.2,0-0.3,0.1-0.3,0.3v1.5L45,26.9c-0.2,0.2-0.2,0.5-0.2,0.8c0,0.8,0.7,1.5,1.5,1.5
		c0,0,0,0,0,0l1.8-3.4c0.1-0.1,0.2-0.2,0.4-0.1c0.1,0.1,0.2,0.2,0.2,0.4L47,29.8c0.1,0.8,0.7,1.4,1.5,1.4c0.3,0,0.5-0.1,0.7-0.2
		l0.7-3.8c0-0.2,0.2-0.3,0.3-0.2c0.2,0,0.3,0.2,0.3,0.3l-0.4,4C50.3,31.6,50.7,31.9,51.2,31.9z"/>
	<path class="st2" d="M51.2,64.5c0.5,0,1-0.3,1.2-0.7l-0.4-4c0-0.2,0.1-0.3,0.3-0.3c0.2,0,0.3,0.1,0.3,0.2l0.7,3.8
		c0.2,0.1,0.5,0.2,0.7,0.2c0.8,0,1.4-0.6,1.5-1.4l-1.6-3.8c-0.1-0.1,0-0.3,0.2-0.4c0.1-0.1,0.3,0,0.4,0.1l1.8,3.4c0,0,0,0,0,0
		c0.8,0,1.5-0.7,1.5-1.5c0-0.3,0-0.6-0.2-0.8l-2.8-3.4v-1.5c0-0.2-0.1-0.3-0.3-0.3c0,0-1.4,0-1.4,0L51.7,53
		c-0.1-0.1-0.3-0.2-0.5-0.2s-0.4,0.1-0.5,0.2l-1.2,1.2c0,0-1.4,0-1.4,0c-0.2,0-0.3,0.1-0.3,0.3v1.5L45,59.4
		c-0.2,0.2-0.2,0.5-0.2,0.8c0,0.8,0.7,1.5,1.5,1.5c0,0,0,0,0,0l1.8-3.4c0.1-0.1,0.2-0.2,0.4-0.1c0.1,0.1,0.2,0.2,0.2,0.4L47,62.3
		c0.1,0.8,0.7,1.4,1.5,1.4c0.3,0,0.5-0.1,0.7-0.2l0.7-3.8c0-0.2,0.2-0.3,0.3-0.2c0.2,0,0.3,0.2,0.3,0.3l-0.4,4
		C50.3,64.1,50.7,64.4,51.2,64.5z"/>
	<path class="st2" d="M22.3,64.5c0.5,0,1-0.3,1.2-0.7l-0.4-4c0-0.2,0.1-0.3,0.3-0.3c0.2,0,0.3,0.1,0.3,0.2l0.7,3.8
		c0.2,0.1,0.5,0.2,0.7,0.2c0.8,0,1.4-0.6,1.5-1.4l-1.6-3.8c-0.1-0.1,0-0.3,0.2-0.4c0.1-0.1,0.3,0,0.4,0.1l1.8,3.4c0,0,0,0,0,0
		c0.8,0,1.5-0.7,1.5-1.5c0-0.3,0-0.6-0.2-0.8l-2.8-3.4v-1.5c0-0.2-0.1-0.3-0.3-0.3c0,0-1.4,0-1.4,0L22.8,53
		c-0.1-0.1-0.3-0.2-0.5-0.2c-0.2,0-0.4,0.1-0.5,0.2l-1.2,1.2c0,0-1.4,0-1.4,0c-0.2,0-0.3,0.1-0.3,0.3v1.5l-2.8,3.4
		c-0.2,0.2-0.2,0.5-0.2,0.8c0,0.8,0.7,1.5,1.5,1.5c0,0,0,0,0,0l1.8-3.4c0.1-0.1,0.2-0.2,0.4-0.1c0.1,0.1,0.2,0.2,0.2,0.4L18,62.3
		c0.1,0.8,0.7,1.4,1.5,1.4c0.3,0,0.5-0.1,0.7-0.2l0.7-3.8c0-0.2,0.2-0.3,0.3-0.2c0.2,0,0.3,0.2,0.3,0.3l-0.4,4
		C21.3,64.1,21.8,64.4,22.3,64.5z"/>
	<path class="st2" d="M80.2,64.5c0.5,0,1-0.3,1.2-0.7l-0.4-4c0-0.2,0.1-0.3,0.3-0.3c0.2,0,0.3,0.1,0.3,0.2l0.7,3.8
		c0.2,0.1,0.5,0.2,0.7,0.2c0.8,0,1.4-0.6,1.5-1.4l-1.6-3.8c-0.1-0.1,0-0.3,0.2-0.4c0.1-0.1,0.3,0,0.4,0.1l1.8,3.4c0,0,0,0,0,0
		c0.8,0,1.5-0.7,1.5-1.5c0-0.3,0-0.6-0.2-0.8l-2.8-3.4v-1.5c0-0.2-0.1-0.3-0.3-0.3c0,0-1.4,0-1.4,0L80.7,53
		c-0.1-0.1-0.3-0.2-0.5-0.2s-0.4,0.1-0.5,0.2l-1.2,1.2c0,0-1.4,0-1.4,0c-0.2,0-0.3,0.1-0.3,0.3v1.5l-2.8,3.4
		c-0.2,0.2-0.2,0.5-0.2,0.8c0,0.8,0.7,1.5,1.5,1.5c0,0,0,0,0,0l1.8-3.4c0.1-0.1,0.2-0.2,0.4-0.1c0.1,0.1,0.2,0.2,0.2,0.4l-1.6,3.8
		c0.1,0.8,0.7,1.4,1.5,1.4c0.3,0,0.5-0.1,0.7-0.2l0.7-3.8c0-0.2,0.2-0.3,0.3-0.2c0.2,0,0.3,0.2,0.3,0.3l-0.4,4
		C79.2,64.1,79.7,64.4,80.2,64.5z"/>
	<path class="st2" d="M51.2,97c0.5,0,1-0.3,1.2-0.7l-0.4-4c0-0.2,0.1-0.3,0.3-0.3c0.2,0,0.3,0.1,0.3,0.2l0.7,3.8
		c0.2,0.1,0.5,0.2,0.7,0.2c0.8,0,1.4-0.6,1.5-1.4l-1.6-3.8c-0.1-0.1,0-0.3,0.2-0.4c0.1-0.1,0.3,0,0.4,0.1l1.8,3.4c0,0,0,0,0,0
		c0.8,0,1.5-0.7,1.5-1.5c0-0.3,0-0.6-0.2-0.8l-2.8-3.4v-1.5c0-0.2-0.1-0.3-0.3-0.3c0,0-1.4,0-1.4,0l-1.2-1.2
		c-0.1-0.1-0.3-0.2-0.5-0.2s-0.4,0.1-0.5,0.2l-1.2,1.2c0,0-1.4,0-1.4,0c-0.2,0-0.3,0.1-0.3,0.3v1.5L45,92c-0.2,0.2-0.2,0.5-0.2,0.8
		c0,0.8,0.7,1.5,1.5,1.5c0,0,0,0,0,0l1.8-3.4c0.1-0.1,0.2-0.2,0.4-0.1c0.1,0.1,0.2,0.2,0.2,0.4L47,94.9c0.1,0.8,0.7,1.4,1.5,1.4
		c0.3,0,0.5-0.1,0.7-0.2l0.7-3.8c0-0.2,0.2-0.3,0.3-0.2c0.2,0,0.3,0.2,0.3,0.3l-0.4,4C50.3,96.7,50.7,97,51.2,97z"/>
</g>
<g>
	<path class="st3" d="M16.3,21.8C16,21.9,15.5,22,15.2,22c-0.1,0-0.1,0-0.2,0l0,0L14.3,19c-0.1-0.5-0.5-0.5-0.5,0.1l0.3,3
		c-0.1,0.2-0.5,0.9-0.9,0.9c-0.4,0-0.9-0.7-0.9-0.9l0.3-3c0.1-0.6-0.4-0.6-0.5-0.1l-0.6,2.9l0,0c-0.1,0-0.1,0-0.2,0
		c-0.3,0-0.9,0-1.1-0.1c0.4-1.5,1.2-4.7,1.5-5.7c0-0.2-0.1-0.4-0.4-0.4c0,0-0.1,0-0.2,0c-0.4,0.1-1.4,0.5-1.8,0.7L9.5,14
		c0.1-0.6-0.4-0.6-0.5-0.1c-0.5,2.1-0.7,4.9-2.2,5.8c0.1-1,1.1-8.4,1.2-9.4c0-0.2,0-0.4,0.3-0.5c0.2-0.1,0.4,0,0.5,0.2
		c0,0,2.5,2.3,2.5,2.3c0.1,0.1,0.3,0.2,0.4,0.1c0.1,0,0.3-0.2,0.3-0.3l0.3-2.8c0-0.1,0-0.2-0.1-0.3c-0.1-0.1-0.2-0.1-0.3-0.1
		c0,0-0.2,0-0.4,0L11.6,8c0.3-0.1,1-0.5,1.4-0.5c0,0,0,0,0,0c0,0,0.1,0,0.1,0c0.2,0,0.4,0.1,0.6,0.2C13.9,7.8,14,7.9,14,8.1l0.4,4
		c0,0.2,0.1,0.3,0.3,0.3c0.1,0,0.3,0,0.4-0.1c0,0,2.5-2.3,2.5-2.3c0.2-0.2,0.3-0.2,0.5-0.2c0.3,0.1,0.3,0.3,0.3,0.5
		c0.1,1,1.1,8.4,1.2,9.4c-1.5-0.9-1.8-3.7-2.2-5.8c-0.1-0.5-0.6-0.5-0.5,0.1l0.2,2.4c-0.3-0.1-1.4-0.5-1.8-0.7c-0.1,0-0.1,0-0.2,0
		c-0.3,0-0.4,0.3-0.4,0.4C15.1,17.1,15.9,20.4,16.3,21.8z"/>
	<path class="st3" d="M34.5,21.8c-0.3,0.1-0.9,0.1-1.1,0.1c-0.1,0-0.1,0-0.2,0l0,0L32.5,19c-0.1-0.5-0.5-0.5-0.5,0.1l0.3,3
		c-0.1,0.2-0.5,0.9-0.9,0.9c-0.4,0-0.9-0.7-0.9-0.9l0.3-3c0.1-0.6-0.4-0.6-0.5-0.1l-0.6,2.9l0,0c-0.1,0-0.1,0-0.2,0
		c-0.3,0-0.9,0-1.1-0.1c0.4-1.5,1.2-4.7,1.5-5.7c0-0.2-0.1-0.4-0.4-0.4c0,0-0.1,0-0.2,0c-0.4,0.1-1.4,0.5-1.8,0.7l0.2-2.4
		c0-0.6-0.4-0.6-0.5-0.1c-0.5,2.1-0.7,4.9-2.2,5.8c0.1-1,1.1-8.4,1.2-9.4c0-0.2,0-0.4,0.3-0.5c0.2-0.1,0.4,0,0.5,0.2
		c0,0,2.5,2.3,2.5,2.3c0.1,0.1,0.3,0.2,0.4,0.1c0.1,0,0.3-0.2,0.3-0.3l0.3-2.8c0-0.1,0-0.2-0.1-0.3c-0.1-0.1-0.2-0.1-0.3-0.1
		c0,0-0.2,0-0.4,0L29.8,8c0.3-0.1,1-0.5,1.4-0.5c0,0,0,0,0,0c0,0,0.1,0,0.1,0c0.2,0,0.4,0.1,0.6,0.2c0.2,0.1,0.2,0.3,0.3,0.5l0.4,4
		c0,0.2,0.1,0.3,0.3,0.3c0.1,0,0.3,0,0.4-0.1c0,0,2.5-2.3,2.5-2.3c0.2-0.2,0.3-0.2,0.5-0.2c0.3,0.1,0.3,0.3,0.3,0.5
		c0.1,1,1.1,8.4,1.2,9.4c-1.5-0.9-1.8-3.7-2.2-5.8c-0.1-0.5-0.6-0.5-0.5,0.1l0.2,2.4c-0.3-0.1-1.4-0.5-1.8-0.7c-0.1,0-0.1,0-0.2,0
		c-0.3,0-0.4,0.3-0.4,0.4C33.3,17.1,34.1,20.4,34.5,21.8z"/>
	<path class="st3" d="M16.3,43.3c-0.3,0.1-0.9,0.1-1.1,0.1c-0.1,0-0.1,0-0.2,0l0,0l-0.6-2.9c-0.1-0.5-0.5-0.5-0.5,0.1l0.3,3
		c-0.1,0.2-0.5,0.9-0.9,0.9c-0.4,0-0.9-0.7-0.9-0.9l0.3-3c0.1-0.6-0.4-0.6-0.5-0.1l-0.6,2.9l0,0c-0.1,0-0.1,0-0.2,0
		c-0.3,0-0.9,0-1.1-0.1c0.4-1.5,1.2-4.7,1.5-5.7c0-0.2-0.1-0.4-0.4-0.4c0,0-0.1,0-0.2,0c-0.4,0.1-1.4,0.5-1.8,0.7l0.2-2.4
		c0.1-0.6-0.4-0.6-0.5-0.1c-0.5,2.1-0.7,4.9-2.2,5.8c0.1-1,1.1-8.4,1.2-9.4c0-0.2,0-0.4,0.3-0.5c0.2-0.1,0.4,0,0.5,0.2
		c0,0,2.5,2.3,2.5,2.3c0.1,0.1,0.3,0.2,0.4,0.1c0.1,0,0.3-0.2,0.3-0.3l0.3-2.8c0-0.1,0-0.2-0.1-0.3c-0.1-0.1-0.2-0.1-0.3-0.1
		c0,0-0.2,0-0.4,0l0.1-0.9c0.3-0.1,1-0.5,1.4-0.5c0,0,0,0,0,0c0,0,0.1,0,0.1,0c0.2,0,0.4,0.1,0.6,0.2c0.2,0.1,0.2,0.3,0.3,0.5l0.4,4
		c0,0.2,0.1,0.3,0.3,0.3c0.1,0,0.3,0,0.4-0.1c0,0,2.5-2.3,2.5-2.3c0.2-0.2,0.3-0.2,0.5-0.2c0.3,0.1,0.3,0.3,0.3,0.5
		c0.1,1,1.1,8.4,1.2,9.4c-1.5-0.9-1.8-3.7-2.2-5.8c-0.1-0.5-0.6-0.5-0.5,0.1l0.2,2.4c-0.3-0.1-1.4-0.5-1.8-0.7c-0.1,0-0.1,0-0.2,0
		c-0.3,0-0.4,0.3-0.4,0.4C15.1,38.6,15.9,41.8,16.3,43.3z"/>
	<path class="st3" d="M34.5,43.3c-0.3,0.1-0.9,0.1-1.1,0.1c-0.1,0-0.1,0-0.2,0l0,0l-0.6-2.9C32.4,39.9,32,40,32,40.6l0.3,3
		c-0.1,0.2-0.5,0.9-0.9,0.9c-0.4,0-0.9-0.7-0.9-0.9l0.3-3c0.1-0.6-0.4-0.6-0.5-0.1l-0.6,2.9l0,0c-0.1,0-0.1,0-0.2,0
		c-0.3,0-0.9,0-1.1-0.1c0.4-1.5,1.2-4.7,1.5-5.7c0-0.2-0.1-0.4-0.4-0.4c0,0-0.1,0-0.2,0c-0.4,0.1-1.4,0.5-1.8,0.7l0.2-2.4
		c0-0.6-0.4-0.6-0.5-0.1c-0.5,2.1-0.7,4.9-2.2,5.8c0.1-1,1.1-8.4,1.2-9.4c0-0.2,0-0.4,0.3-0.5c0.2-0.1,0.4,0,0.5,0.2
		c0,0,2.5,2.3,2.5,2.3c0.1,0.1,0.3,0.2,0.4,0.1c0.1,0,0.3-0.2,0.3-0.3l0.3-2.8c0-0.1,0-0.2-0.1-0.3c-0.1-0.1-0.2-0.1-0.3-0.1
		c0,0-0.2,0-0.4,0l0.1-0.9c0.3-0.1,1-0.5,1.4-0.5c0,0,0,0,0,0c0,0,0.1,0,0.1,0c0.2,0,0.4,0.1,0.6,0.2c0.2,0.1,0.2,0.3,0.3,0.5l0.4,4
		c0,0.2,0.1,0.3,0.3,0.3c0.1,0,0.3,0,0.4-0.1c0,0,2.5-2.3,2.5-2.3c0.2-0.2,0.3-0.2,0.5-0.2c0.3,0.1,0.3,0.3,0.3,0.5
		c0.1,1,1.1,8.4,1.2,9.4c-1.5-0.9-1.8-3.7-2.2-5.8c-0.1-0.5-0.6-0.5-0.5,0.1l0.2,2.4c-0.3-0.1-1.4-0.5-1.8-0.7c-0.1,0-0.1,0-0.2,0
		c-0.3,0-0.4,0.3-0.4,0.4C33.3,38.6,34.1,41.8,34.5,43.3z"/>
	<path class="st3" d="M74.2,21.8C73.9,21.9,73.3,22,73,22c-0.1,0-0.1,0-0.2,0l0,0L72.2,19c-0.1-0.5-0.5-0.5-0.5,0.1l0.3,3
		c-0.1,0.2-0.5,0.9-0.9,0.9c-0.4,0-0.9-0.7-0.9-0.9l0.3-3c0.1-0.6-0.4-0.6-0.5-0.1l-0.6,2.9l0,0c-0.1,0-0.1,0-0.2,0
		c-0.3,0-0.9,0-1.1-0.1c0.4-1.5,1.2-4.7,1.5-5.7c0-0.2-0.1-0.4-0.4-0.4c0,0-0.1,0-0.2,0c-0.4,0.1-1.4,0.5-1.8,0.7l0.2-2.4
		c0-0.6-0.4-0.6-0.5-0.1c-0.5,2.1-0.7,4.9-2.2,5.8c0.1-1,1.1-8.4,1.2-9.4c0-0.2,0-0.4,0.3-0.5c0.2-0.1,0.4,0,0.5,0.2
		c0,0,2.5,2.3,2.5,2.3c0.1,0.1,0.3,0.2,0.4,0.1c0.1,0,0.3-0.2,0.3-0.3l0.3-2.8c0-0.1,0-0.2-0.1-0.3c-0.1-0.1-0.2-0.1-0.3-0.1
		c0,0-0.2,0-0.4,0L69.5,8c0.3-0.1,1-0.5,1.4-0.5c0,0,0,0,0,0c0,0,0.1,0,0.1,0c0.2,0,0.4,0.1,0.6,0.2c0.2,0.1,0.2,0.3,0.3,0.5l0.4,4
		c0,0.2,0.1,0.3,0.3,0.3c0.2,0,0.3,0,0.4-0.1c0,0,2.5-2.3,2.5-2.3c0.2-0.2,0.3-0.2,0.5-0.2c0.3,0.1,0.3,0.3,0.3,0.5
		c0.1,1,1.1,8.4,1.2,9.4c-1.5-0.9-1.8-3.7-2.2-5.8c-0.1-0.5-0.6-0.5-0.5,0.1l0.2,2.4c-0.3-0.1-1.4-0.5-1.8-0.7c-0.1,0-0.1,0-0.2,0
		c-0.3,0-0.4,0.3-0.4,0.4C72.9,17.1,73.8,20.4,74.2,21.8z"/>
	<path class="st3" d="M92.4,21.8c-0.3,0.1-0.9,0.1-1.1,0.1c-0.1,0-0.1,0-0.2,0l0,0L90.4,19c-0.1-0.5-0.5-0.5-0.5,0.1l0.3,3
		c-0.1,0.2-0.5,0.9-0.9,0.9c-0.4,0-0.9-0.7-0.9-0.9l0.3-3c0.1-0.6-0.4-0.6-0.5-0.1l-0.6,2.9l0,0c-0.1,0-0.1,0-0.2,0
		c-0.3,0-0.9,0-1.1-0.1c0.4-1.5,1.2-4.7,1.5-5.7c0-0.2-0.1-0.4-0.4-0.4c0,0-0.1,0-0.2,0c-0.4,0.1-1.4,0.5-1.8,0.7l0.2-2.4
		c0.1-0.6-0.4-0.6-0.5-0.1c-0.5,2.1-0.7,4.9-2.2,5.8c0.1-1,1.1-8.4,1.2-9.4c0-0.2,0-0.4,0.3-0.5c0.2-0.1,0.4,0,0.5,0.2
		c0,0,2.5,2.3,2.5,2.3c0.1,0.1,0.3,0.2,0.4,0.1c0.1,0,0.3-0.2,0.3-0.3l0.3-2.8c0-0.1,0-0.2-0.1-0.3c-0.1-0.1-0.2-0.1-0.3-0.1
		c0,0-0.2,0-0.4,0L87.7,8c0.3-0.1,1-0.5,1.4-0.5c0,0,0,0,0,0c0,0,0.1,0,0.1,0c0.2,0,0.4,0.1,0.6,0.2c0.2,0.1,0.2,0.3,0.3,0.5l0.4,4
		c0,0.2,0.1,0.3,0.3,0.3c0.1,0,0.3,0,0.4-0.1c0,0,2.5-2.3,2.5-2.3c0.2-0.2,0.3-0.2,0.5-0.2c0.3,0.1,0.3,0.3,0.3,0.5
		c0.1,1,1.1,8.4,1.2,9.4c-1.5-0.9-1.8-3.7-2.2-5.8c-0.1-0.5-0.6-0.5-0.5,0.1l0.2,2.4c-0.3-0.1-1.4-0.5-1.8-0.7c-0.1,0-0.1,0-0.2,0
		c-0.3,0-0.4,0.3-0.4,0.4C91.1,17.1,92,20.4,92.4,21.8z"/>
	<path class="st3" d="M74.2,43.3c-0.3,0.1-0.9,0.1-1.1,0.1c-0.1,0-0.1,0-0.2,0l0,0l-0.6-2.9c-0.1-0.5-0.5-0.5-0.5,0.1l0.3,3
		c-0.1,0.2-0.5,0.9-0.9,0.9c-0.4,0-0.9-0.7-0.9-0.9l0.3-3c0.1-0.6-0.4-0.6-0.5-0.1l-0.6,2.9l0,0c-0.1,0-0.1,0-0.2,0
		c-0.3,0-0.9,0-1.1-0.1c0.4-1.5,1.2-4.7,1.5-5.7c0-0.2-0.1-0.4-0.4-0.4c0,0-0.1,0-0.2,0c-0.4,0.1-1.4,0.5-1.8,0.7l0.2-2.4
		c0-0.6-0.4-0.6-0.5-0.1c-0.5,2.1-0.7,4.9-2.2,5.8c0.1-1,1.1-8.4,1.2-9.4c0-0.2,0-0.4,0.3-0.5c0.2-0.1,0.4,0,0.5,0.2
		c0,0,2.5,2.3,2.5,2.3c0.1,0.1,0.3,0.2,0.4,0.1c0.1,0,0.3-0.2,0.3-0.3l0.3-2.8c0-0.1,0-0.2-0.1-0.3c-0.1-0.1-0.2-0.1-0.3-0.1
		c0,0-0.2,0-0.4,0l0.1-0.9c0.3-0.1,1-0.5,1.4-0.5c0,0,0,0,0,0c0,0,0.1,0,0.1,0c0.2,0,0.4,0.1,0.6,0.2c0.2,0.1,0.2,0.3,0.3,0.5l0.4,4
		c0,0.2,0.1,0.3,0.3,0.3c0.2,0,0.3,0,0.4-0.1c0,0,2.5-2.3,2.5-2.3c0.2-0.2,0.3-0.2,0.5-0.2c0.3,0.1,0.3,0.3,0.3,0.5
		c0.1,1,1.1,8.4,1.2,9.4c-1.5-0.9-1.8-3.7-2.2-5.8c-0.1-0.5-0.6-0.5-0.5,0.1l0.2,2.4c-0.3-0.1-1.4-0.5-1.8-0.7c-0.1,0-0.1,0-0.2,0
		c-0.3,0-0.4,0.3-0.4,0.4C72.9,38.6,73.8,41.8,74.2,43.3z"/>
	<path class="st3" d="M92.4,43.3c-0.3,0.1-0.9,0.1-1.1,0.1c-0.1,0-0.1,0-0.2,0l0,0l-0.6-2.9c-0.1-0.5-0.5-0.5-0.5,0.1l0.3,3
		c-0.1,0.2-0.5,0.9-0.9,0.9c-0.4,0-0.9-0.7-0.9-0.9l0.3-3c0.1-0.6-0.4-0.6-0.5-0.1l-0.6,2.9l0,0c-0.1,0-0.1,0-0.2,0
		c-0.3,0-0.9,0-1.1-0.1c0.4-1.5,1.2-4.7,1.5-5.7c0-0.2-0.1-0.4-0.4-0.4c0,0-0.1,0-0.2,0c-0.4,0.1-1.4,0.5-1.8,0.7l0.2-2.4
		c0.1-0.6-0.4-0.6-0.5-0.1c-0.5,2.1-0.7,4.9-2.2,5.8c0.1-1,1.1-8.4,1.2-9.4c0-0.2,0-0.4,0.3-0.5c0.2-0.1,0.4,0,0.5,0.2
		c0,0,2.5,2.3,2.5,2.3c0.1,0.1,0.3,0.2,0.4,0.1c0.1,0,0.3-0.2,0.3-0.3l0.3-2.8c0-0.1,0-0.2-0.1-0.3c-0.1-0.1-0.2-0.1-0.3-0.1
		c0,0-0.2,0-0.4,0l0.1-0.9c0.3-0.1,1-0.5,1.4-0.5c0,0,0,0,0,0c0,0,0.1,0,0.1,0c0.2,0,0.4,0.1,0.6,0.2c0.2,0.1,0.2,0.3,0.3,0.5l0.4,4
		c0,0.2,0.1,0.3,0.3,0.3c0.1,0,0.3,0,0.4-0.1c0,0,2.5-2.3,2.5-2.3c0.2-0.2,0.3-0.2,0.5-0.2c0.3,0.1,0.3,0.3,0.3,0.5
		c0.1,1,1.1,8.4,1.2,9.4c-1.5-0.9-1.8-3.7-2.2-5.8c-0.1-0.5-0.6-0.5-0.5,0.1l0.2,2.4c-0.3-0.1-1.4-0.5-1.8-0.7c-0.1,0-0.1,0-0.2,0
		c-0.3,0-0.4,0.3-0.4,0.4C91.1,38.6,92,41.8,92.4,43.3z"/>
	<path class="st3" d="M16.3,87c-0.3,0.1-0.9,0.1-1.1,0.1c-0.1,0-0.1,0-0.2,0l0,0l-0.6-2.9c-0.1-0.5-0.5-0.5-0.5,0.1l0.3,2.9
		c-0.1,0.2-0.5,0.9-0.9,0.9c-0.4,0-0.9-0.7-0.9-0.9l0.3-2.9c0.1-0.6-0.4-0.6-0.5-0.1L11.5,87l0,0c-0.1,0-0.1,0-0.2,0
		c-0.3,0-0.9,0-1.1-0.1c0.4-1.5,1.2-4.7,1.5-5.7c0-0.2-0.1-0.4-0.4-0.4c0,0-0.1,0-0.2,0c-0.4,0.1-1.4,0.5-1.8,0.7l0.2-2.4
		C9.5,78.5,9.1,78.5,9,79c-0.5,2.1-0.7,4.9-2.2,5.8c0.1-1,1.1-8.4,1.2-9.4c0-0.2,0-0.4,0.3-0.5c0.2-0.1,0.4,0,0.5,0.2
		c0,0,2.5,2.3,2.5,2.3c0.1,0.1,0.3,0.2,0.4,0.1c0.1,0,0.3-0.2,0.3-0.3l0.3-2.8c0-0.1,0-0.2-0.1-0.3C12.1,74.1,12,74,11.9,74
		c0,0-0.2,0-0.4,0l0.1-0.9c0.3-0.1,1-0.5,1.4-0.5c0,0,0,0,0,0c0,0,0.1,0,0.1,0c0.2,0,0.4,0.1,0.6,0.2c0.2,0.1,0.2,0.3,0.3,0.5l0.4,4
		c0,0.2,0.1,0.3,0.3,0.3c0.1,0,0.3,0,0.4-0.1c0,0,2.5-2.3,2.5-2.3c0.2-0.2,0.3-0.2,0.5-0.2c0.3,0.1,0.3,0.3,0.3,0.5
		c0.1,1,1.1,8.4,1.2,9.4c-1.5-0.9-1.8-3.7-2.2-5.8c-0.1-0.5-0.6-0.5-0.5,0.1l0.2,2.4c-0.3-0.1-1.4-0.5-1.8-0.7c-0.1,0-0.1,0-0.2,0
		c-0.3,0-0.4,0.3-0.4,0.4C15.1,82.3,15.9,85.5,16.3,87z"/>
	<path class="st3" d="M34.5,87c-0.3,0.1-0.9,0.1-1.1,0.1c-0.1,0-0.1,0-0.2,0l0,0l-0.6-2.9c-0.1-0.5-0.5-0.5-0.5,0.1l0.3,2.9
		c-0.1,0.2-0.5,0.9-0.9,0.9c-0.4,0-0.9-0.7-0.9-0.9l0.3-2.9c0.1-0.6-0.4-0.6-0.5-0.1L29.7,87l0,0c-0.1,0-0.1,0-0.2,0
		c-0.3,0-0.9,0-1.1-0.1c0.4-1.5,1.2-4.7,1.5-5.7c0-0.2-0.1-0.4-0.4-0.4c0,0-0.1,0-0.2,0c-0.4,0.1-1.4,0.5-1.8,0.7l0.2-2.4
		c0-0.6-0.4-0.6-0.5-0.1c-0.5,2.1-0.7,4.9-2.2,5.8c0.1-1,1.1-8.4,1.2-9.4c0-0.2,0-0.4,0.3-0.5c0.2-0.1,0.4,0,0.5,0.2
		c0,0,2.5,2.3,2.5,2.3c0.1,0.1,0.3,0.2,0.4,0.1c0.1,0,0.3-0.2,0.3-0.3l0.3-2.8c0-0.1,0-0.2-0.1-0.3c-0.1-0.1-0.2-0.1-0.3-0.1
		c0,0-0.2,0-0.4,0l0.1-0.9c0.3-0.1,1-0.5,1.4-0.5c0,0,0,0,0,0c0,0,0.1,0,0.1,0c0.2,0,0.4,0.1,0.6,0.2c0.2,0.1,0.2,0.3,0.3,0.5l0.4,4
		c0,0.2,0.1,0.3,0.3,0.3c0.1,0,0.3,0,0.4-0.1c0,0,2.5-2.3,2.5-2.3c0.2-0.2,0.3-0.2,0.5-0.2c0.3,0.1,0.3,0.3,0.3,0.5
		c0.1,1,1.1,8.4,1.2,9.4c-1.5-0.9-1.8-3.7-2.2-5.8c-0.1-0.5-0.6-0.5-0.5,0.1l0.2,2.4c-0.3-0.1-1.4-0.5-1.8-0.7c-0.1,0-0.1,0-0.2,0
		c-0.3,0-0.4,0.3-0.4,0.4C33.3,82.3,34.1,85.5,34.5,87z"/>
	<path class="st3" d="M16.3,108.4c-0.3,0.1-0.9,0.1-1.1,0.1c-0.1,0-0.1,0-0.2,0l0,0l-0.6-2.9c-0.1-0.5-0.5-0.5-0.5,0.1l0.3,2.9
		c-0.1,0.2-0.5,0.9-0.9,0.9c-0.4,0-0.9-0.7-0.9-0.9l0.3-2.9c0.1-0.6-0.4-0.6-0.5-0.1l-0.6,2.9l0,0c-0.1,0-0.1,0-0.2,0
		c-0.3,0-0.9,0-1.1-0.1c0.4-1.5,1.2-4.7,1.5-5.7c0-0.2-0.1-0.4-0.4-0.4c0,0-0.1,0-0.2,0c-0.4,0.1-1.4,0.5-1.8,0.7l0.2-2.4
		c0.1-0.6-0.4-0.6-0.5-0.1c-0.5,2.1-0.7,4.9-2.2,5.8c0.1-1,1.1-8.4,1.2-9.4c0-0.2,0-0.4,0.3-0.5c0.2-0.1,0.4,0,0.5,0.2
		c0,0,2.5,2.3,2.5,2.3c0.1,0.1,0.3,0.2,0.4,0.1c0.1,0,0.3-0.2,0.3-0.3l0.3-2.8c0-0.1,0-0.2-0.1-0.3c-0.1-0.1-0.2-0.1-0.3-0.1
		c0,0-0.2,0-0.4,0l0.1-0.9c0.3-0.1,1-0.5,1.4-0.5c0,0,0,0,0,0c0,0,0.1,0,0.1,0c0.2,0,0.4,0.1,0.6,0.2c0.2,0.1,0.2,0.3,0.3,0.5l0.4,4
		c0,0.2,0.1,0.3,0.3,0.3c0.1,0,0.3,0,0.4-0.1c0,0,2.5-2.3,2.5-2.3c0.2-0.2,0.3-0.2,0.5-0.2c0.3,0.1,0.3,0.3,0.3,0.5
		c0.1,1,1.1,8.4,1.2,9.4c-1.5-0.9-1.8-3.7-2.2-5.8c-0.1-0.5-0.6-0.5-0.5,0.1l0.2,2.4c-0.3-0.1-1.4-0.5-1.8-0.7c-0.1,0-0.1,0-0.2,0
		c-0.3,0-0.4,0.3-0.4,0.4C15.1,103.7,15.9,106.9,16.3,108.4z"/>
	<path class="st3" d="M34.5,108.4c-0.3,0.1-0.9,0.1-1.1,0.1c-0.1,0-0.1,0-0.2,0l0,0l-0.6-2.9c-0.1-0.5-0.5-0.5-0.5,0.1l0.3,2.9
		c-0.1,0.2-0.5,0.9-0.9,0.9c-0.4,0-0.9-0.7-0.9-0.9l0.3-2.9c0.1-0.6-0.4-0.6-0.5-0.1l-0.6,2.9l0,0c-0.1,0-0.1,0-0.2,0
		c-0.3,0-0.9,0-1.1-0.1c0.4-1.5,1.2-4.7,1.5-5.7c0-0.2-0.1-0.4-0.4-0.4c0,0-0.1,0-0.2,0c-0.4,0.1-1.4,0.5-1.8,0.7l0.2-2.4
		c0-0.6-0.4-0.6-0.5-0.1c-0.5,2.1-0.7,4.9-2.2,5.8c0.1-1,1.1-8.4,1.2-9.4c0-0.2,0-0.4,0.3-0.5c0.2-0.1,0.4,0,0.5,0.2
		c0,0,2.5,2.3,2.5,2.3c0.1,0.1,0.3,0.2,0.4,0.1c0.1,0,0.3-0.2,0.3-0.3l0.3-2.8c0-0.1,0-0.2-0.1-0.3c-0.1-0.1-0.2-0.1-0.3-0.1
		c0,0-0.2,0-0.4,0l0.1-0.9c0.3-0.1,1-0.5,1.4-0.5c0,0,0,0,0,0c0,0,0.1,0,0.1,0c0.2,0,0.4,0.1,0.6,0.2c0.2,0.1,0.2,0.3,0.3,0.5l0.4,4
		c0,0.2,0.1,0.3,0.3,0.3c0.1,0,0.3,0,0.4-0.1c0,0,2.5-2.3,2.5-2.3c0.2-0.2,0.3-0.2,0.5-0.2c0.3,0.1,0.3,0.3,0.3,0.5
		c0.1,1,1.1,8.4,1.2,9.4c-1.5-0.9-1.8-3.7-2.2-5.8c-0.1-0.5-0.6-0.5-0.5,0.1l0.2,2.4c-0.3-0.1-1.4-0.5-1.8-0.7c-0.1,0-0.1,0-0.2,0
		c-0.3,0-0.4,0.3-0.4,0.4C33.3,103.7,34.1,106.9,34.5,108.4z"/>
	<path class="st3" d="M74.2,87c-0.3,0.1-0.9,0.1-1.1,0.1c-0.1,0-0.1,0-0.2,0l0,0l-0.6-2.9c-0.1-0.5-0.5-0.5-0.5,0.1l0.3,2.9
		c-0.1,0.2-0.5,0.9-0.9,0.9c-0.4,0-0.9-0.7-0.9-0.9l0.3-2.9c0.1-0.6-0.4-0.6-0.5-0.1L69.3,87l0,0c-0.1,0-0.1,0-0.2,0
		c-0.3,0-0.9,0-1.1-0.1c0.4-1.5,1.2-4.7,1.5-5.7c0-0.2-0.1-0.4-0.4-0.4c0,0-0.1,0-0.2,0c-0.4,0.1-1.4,0.5-1.8,0.7l0.2-2.4
		c0-0.6-0.4-0.6-0.5-0.1c-0.5,2.1-0.7,4.9-2.2,5.8c0.1-1,1.1-8.4,1.2-9.4c0-0.2,0-0.4,0.3-0.5c0.2-0.1,0.4,0,0.5,0.2
		c0,0,2.5,2.3,2.5,2.3c0.1,0.1,0.3,0.2,0.4,0.1c0.1,0,0.3-0.2,0.3-0.3l0.3-2.8c0-0.1,0-0.2-0.1-0.3C70,74.1,69.9,74,69.8,74
		c0,0-0.2,0-0.4,0l0.1-0.9c0.3-0.1,1-0.5,1.4-0.5c0,0,0,0,0,0c0,0,0.1,0,0.1,0c0.2,0,0.4,0.1,0.6,0.2c0.2,0.1,0.2,0.3,0.3,0.5l0.4,4
		c0,0.2,0.1,0.3,0.3,0.3c0.2,0,0.3,0,0.4-0.1c0,0,2.5-2.3,2.5-2.3c0.2-0.2,0.3-0.2,0.5-0.2c0.3,0.1,0.3,0.3,0.3,0.5
		c0.1,1,1.1,8.4,1.2,9.4c-1.5-0.9-1.8-3.7-2.2-5.8c-0.1-0.5-0.6-0.5-0.5,0.1l0.2,2.4c-0.3-0.1-1.4-0.5-1.8-0.7c-0.1,0-0.1,0-0.2,0
		c-0.3,0-0.4,0.3-0.4,0.4C72.9,82.3,73.8,85.5,74.2,87z"/>
	<path class="st3" d="M92.4,87c-0.3,0.1-0.9,0.1-1.1,0.1c-0.1,0-0.1,0-0.2,0l0,0l-0.6-2.9c-0.1-0.5-0.5-0.5-0.5,0.1l0.3,2.9
		c-0.1,0.2-0.5,0.9-0.9,0.9c-0.4,0-0.9-0.7-0.9-0.9l0.3-2.9c0.1-0.6-0.4-0.6-0.5-0.1L87.5,87l0,0c-0.1,0-0.1,0-0.2,0
		c-0.3,0-0.9,0-1.1-0.1c0.4-1.5,1.2-4.7,1.5-5.7c0-0.2-0.1-0.4-0.4-0.4c0,0-0.1,0-0.2,0c-0.4,0.1-1.4,0.5-1.8,0.7l0.2-2.4
		c0.1-0.6-0.4-0.6-0.5-0.1c-0.5,2.1-0.7,4.9-2.2,5.8c0.1-1,1.1-8.4,1.2-9.4c0-0.2,0-0.4,0.3-0.5c0.2-0.1,0.4,0,0.5,0.2
		c0,0,2.5,2.3,2.5,2.3c0.1,0.1,0.3,0.2,0.4,0.1c0.1,0,0.3-0.2,0.3-0.3l0.3-2.8c0-0.1,0-0.2-0.1-0.3C88.2,74.1,88.1,74,88,74
		c0,0-0.2,0-0.4,0l0.1-0.9c0.3-0.1,1-0.5,1.4-0.5c0,0,0,0,0,0c0,0,0.1,0,0.1,0c0.2,0,0.4,0.1,0.6,0.2c0.2,0.1,0.2,0.3,0.3,0.5l0.4,4
		c0,0.2,0.1,0.3,0.3,0.3c0.1,0,0.3,0,0.4-0.1c0,0,2.5-2.3,2.5-2.3c0.2-0.2,0.3-0.2,0.5-0.2c0.3,0.1,0.3,0.3,0.3,0.5
		c0.1,1,1.1,8.4,1.2,9.4c-1.5-0.9-1.8-3.7-2.2-5.8c-0.1-0.5-0.6-0.5-0.5,0.1l0.2,2.4c-0.3-0.1-1.4-0.5-1.8-0.7c-0.1,0-0.1,0-0.2,0
		c-0.3,0-0.4,0.3-0.4,0.4C91.1,82.3,92,85.5,92.4,87z"/>
	<path class="st3" d="M74.2,108.4c-0.3,0.1-0.9,0.1-1.1,0.1c-0.1,0-0.1,0-0.2,0l0,0l-0.6-2.9c-0.1-0.5-0.5-0.5-0.5,0.1l0.3,2.9
		c-0.1,0.2-0.5,0.9-0.9,0.9c-0.4,0-0.9-0.7-0.9-0.9l0.3-2.9c0.1-0.6-0.4-0.6-0.5-0.1l-0.6,2.9l0,0c-0.1,0-0.1,0-0.2,0
		c-0.3,0-0.9,0-1.1-0.1c0.4-1.5,1.2-4.7,1.5-5.7c0-0.2-0.1-0.4-0.4-0.4c0,0-0.1,0-0.2,0c-0.4,0.1-1.4,0.5-1.8,0.7l0.2-2.4
		c0-0.6-0.4-0.6-0.5-0.1c-0.5,2.1-0.7,4.9-2.2,5.8c0.1-1,1.1-8.4,1.2-9.4c0-0.2,0-0.4,0.3-0.5c0.2-0.1,0.4,0,0.5,0.2
		c0,0,2.5,2.3,2.5,2.3c0.1,0.1,0.3,0.2,0.4,0.1c0.1,0,0.3-0.2,0.3-0.3l0.3-2.8c0-0.1,0-0.2-0.1-0.3c-0.1-0.1-0.2-0.1-0.3-0.1
		c0,0-0.2,0-0.4,0l0.1-0.9c0.3-0.1,1-0.5,1.4-0.5c0,0,0,0,0,0c0,0,0.1,0,0.1,0c0.2,0,0.4,0.1,0.6,0.2c0.2,0.1,0.2,0.3,0.3,0.5l0.4,4
		c0,0.2,0.1,0.3,0.3,0.3c0.2,0,0.3,0,0.4-0.1c0,0,2.5-2.3,2.5-2.3c0.2-0.2,0.3-0.2,0.5-0.2c0.3,0.1,0.3,0.3,0.3,0.5
		c0.1,1,1.1,8.4,1.2,9.4c-1.5-0.9-1.8-3.7-2.2-5.8c-0.1-0.5-0.6-0.5-0.5,0.1l0.2,2.4c-0.3-0.1-1.4-0.5-1.8-0.7c-0.1,0-0.1,0-0.2,0
		c-0.3,0-0.4,0.3-0.4,0.4C72.9,103.7,73.8,106.9,74.2,108.4z"/>
	<path class="st3" d="M92.4,108.4c-0.3,0.1-0.9,0.1-1.1,0.1c-0.1,0-0.1,0-0.2,0l0,0l-0.6-2.9c-0.1-0.5-0.5-0.5-0.5,0.1l0.3,2.9
		c-0.1,0.2-0.5,0.9-0.9,0.9c-0.4,0-0.9-0.7-0.9-0.9l0.3-2.9c0.1-0.6-0.4-0.6-0.5-0.1l-0.6,2.9l0,0c-0.1,0-0.1,0-0.2,0
		c-0.3,0-0.9,0-1.1-0.1c0.4-1.5,1.2-4.7,1.5-5.7c0-0.2-0.1-0.4-0.4-0.4c0,0-0.1,0-0.2,0c-0.4,0.1-1.4,0.5-1.8,0.7l0.2-2.4
		c0.1-0.6-0.4-0.6-0.5-0.1c-0.5,2.1-0.7,4.9-2.2,5.8c0.1-1,1.1-8.4,1.2-9.4c0-0.2,0-0.4,0.3-0.5c0.2-0.1,0.4,0,0.5,0.2
		c0,0,2.5,2.3,2.5,2.3c0.1,0.1,0.3,0.2,0.4,0.1c0.1,0,0.3-0.2,0.3-0.3l0.3-2.8c0-0.1,0-0.2-0.1-0.3c-0.1-0.1-0.2-0.1-0.3-0.1
		c0,0-0.2,0-0.4,0l0.1-0.9c0.3-0.1,1-0.5,1.4-0.5c0,0,0,0,0,0c0,0,0.1,0,0.1,0c0.2,0,0.4,0.1,0.6,0.2c0.2,0.1,0.2,0.3,0.3,0.5l0.4,4
		c0,0.2,0.1,0.3,0.3,0.3c0.1,0,0.3,0,0.4-0.1c0,0,2.5-2.3,2.5-2.3c0.2-0.2,0.3-0.2,0.5-0.2c0.3,0.1,0.3,0.3,0.3,0.5
		c0.1,1,1.1,8.4,1.2,9.4c-1.5-0.9-1.8-3.7-2.2-5.8c-0.1-0.5-0.6-0.5-0.5,0.1l0.2,2.4c-0.3-0.1-1.4-0.5-1.8-0.7c-0.1,0-0.1,0-0.2,0
		c-0.3,0-0.4,0.3-0.4,0.4C91.1,103.7,92,106.9,92.4,108.4z"/>
</g>
</svg>
